<svg xmlns:xlink="http://www.w3.org/1999/xlink" xmlns="http://www.w3.org/2000/svg" width="292" height="137" viewBox="0 0 292 137" fill="none">
<path d="M5.1555 0.00128174L3.15064 5.32016L1.18672 0.00128174H0.000244141V6.50668H0.818533V1.14689L2.8233 6.50668H3.47797L5.48274 1.14689V6.50668H6.30103V0.00128174H5.1555Z" fill="white"/>
<path d="M15.0972 0L13.1334 5.31888L11.1695 0H9.98291V6.5054H10.8012V1.14561L12.7651 6.5054H13.4606L15.4655 1.14561V6.5054H16.2838V0H15.0972Z" fill="white"/>
<path d="M25.0801 0L23.1162 5.31888L21.1523 0H19.9658V6.5054H20.7841V1.14561L22.748 6.5054H23.4435L25.4483 1.14561V6.5054H26.2258V0H25.0801Z" fill="white"/>
<path d="M35.0643 0L33.1003 5.31888L31.1365 0H29.95V6.5054H30.7682V1.14561L32.7322 6.5054H33.4277L35.3916 1.14561V6.5054H36.2099V0H35.0643Z" fill="white"/>
<path d="M45.0466 0L43.0417 5.31888L41.0778 0H39.8914V6.5054H40.7096V1.14561L42.7144 6.5054H43.41L45.3739 1.14561V6.5054H46.1921V0H45.0466Z" fill="white"/>
<path d="M55.0295 0L53.0248 5.31888L51.0608 0H49.8743V6.5054H50.6926V1.14561L52.6565 6.5054H53.352L55.3569 1.14561V6.5054H56.1752V0H55.0295Z" fill="white"/>
<path d="M64.9725 0L63.0085 5.31888L61.0446 0H59.8582V6.5054H60.6764V1.14561L62.6404 6.5054H63.3359L65.3407 1.14561V6.5054H66.1181V0H64.9725Z" fill="white"/>
<path d="M74.9554 0L72.9915 5.31888L71.0276 0H69.8411V6.5054H70.6594V1.14561L72.6233 6.5054H73.3188L75.2827 1.14561V6.5054H76.101V0H74.9554Z" fill="white"/>
<path d="M84.9385 0L82.9746 5.31888L80.9697 0H79.8242V6.5054H80.6016V1.14561L82.6063 6.5054H83.3019L85.2658 1.14561V6.5054H86.084V0H84.9385Z" fill="white"/>
<path d="M94.9216 0L92.9168 5.31888L90.9529 0H89.7664V6.5054H90.5846V1.14561L92.5486 6.5054H93.2441L95.249 1.14561V6.5054H96.0672V0H94.9216Z" fill="white"/>
<path d="M104.864 0L102.9 5.31888L100.936 0H99.7495V6.5054H100.568V1.14561L102.532 6.5054H103.227L105.232 1.14561V6.5054H106.009V0H104.864Z" fill="white"/>
<path d="M114.847 0L112.883 5.31888L110.919 0H109.732V6.5054H110.551V1.14561L112.515 6.5054H113.21L115.215 1.14561V6.5054H115.992V0H114.847Z" fill="white"/>
<path d="M124.83 0L122.866 5.31888L120.902 0H119.715V6.5054H120.534V1.14561L122.497 6.5054H123.193L125.157 1.14561V6.5054H125.975V0H124.83Z" fill="white"/>
<path d="M134.813 0L132.808 5.31888L130.845 0H129.658V6.5054H130.476V1.14561L132.481 6.5054H133.177L135.141 1.14561V6.5054H135.959V0H134.813Z" fill="white"/>
<path d="M144.796 0L142.791 5.31888L140.827 0H139.641V6.5054H140.459V1.14561L142.423 6.5054H143.119L145.123 1.14561V6.5054H145.942V0H144.796Z" fill="white"/>
<path d="M5.15526 10.8423L3.15039 16.1612L1.18648 10.8423H0V17.3477H0.818289V11.9879L2.82306 17.3477H3.47773L5.4825 11.9879V17.3477H6.30078V10.8423H5.15526Z" fill="white"/>
<path d="M9.77832 10.8423H10.9649L12.9288 16.1612L14.9336 10.8423H16.0792V17.3477H15.2609V11.9879L13.297 17.3477H12.6015L10.5966 11.9879V17.3477H9.77832V10.8423Z" fill="white"/>
<path d="M19.5566 10.8423H20.7431L22.707 16.1612L24.7118 10.8423H25.8574V17.3477H25.0391V11.9879L23.0752 17.3477H22.3797L20.3749 11.9879V17.3477H19.5566V10.8423Z" fill="white"/>
<path d="M29.3357 10.8423H30.5223L32.527 16.1612L34.491 10.8423H35.6366V17.3477H34.8183V11.9879L32.8544 17.3477H32.1589L30.154 11.9879V17.3477H29.3357V10.8423Z" fill="white"/>
<path d="M39.1555 10.8423H40.3011L42.3059 16.1612L44.2698 10.8423H45.4154V17.3477H44.5972V11.9879L42.6332 17.3477H41.9377L39.933 11.9879V17.3477H39.1555V10.8423Z" fill="white"/>
<path d="M48.9338 10.8423H50.0794L52.0842 16.1612L54.0481 10.8423H55.1937V17.3477H54.3754V11.9879L52.4116 17.3477H51.7159L49.7112 11.9879V17.3477H48.9338V10.8423Z" fill="white"/>
<path d="M58.7122 10.8423H59.8986L61.8626 16.1612L63.8265 10.8423H64.9721V17.3477H64.1538V11.9879L62.1899 17.3477H61.4944L59.4895 11.9879V17.3477H58.7122V10.8423Z" fill="white"/>
<path d="M68.4907 10.8423H69.6773L71.6412 16.1612L73.605 10.8423H74.7507V17.3477H73.9324V11.9879L71.9685 17.3477H71.2729L69.309 11.9879V17.3477H68.4907V10.8423Z" fill="white"/>
<path d="M78.269 10.8423H79.4555L81.4194 16.1612L83.3833 10.8423H84.529V17.3477H83.7107V11.9879L81.7468 17.3477H81.0512L79.0873 11.9879V17.3477H78.269V10.8423Z" fill="white"/>
<path d="M88.0481 10.8423H89.2347L91.1985 16.1612L93.1624 10.8423H94.308V17.3477H93.5307V11.9879L91.5258 17.3477H90.8303L88.8664 11.9879V17.3477H88.0481V10.8423Z" fill="white"/>
<path d="M97.8264 10.8423H99.0129L100.977 16.1612L102.941 10.8423H104.086V17.3477H103.309V11.9879L101.304 17.3477H100.609L98.6447 11.9879V17.3477H97.8264V10.8423Z" fill="white"/>
<path d="M107.605 10.8423H108.791L110.755 16.1612L112.719 10.8423H113.865V17.3477H113.087V11.9879L111.082 17.3477H110.387L108.423 11.9879V17.3477H107.605V10.8423Z" fill="white"/>
<path d="M117.383 10.8423H118.57L120.534 16.1612L122.498 10.8423H123.643V17.3477H122.866V11.9879L120.861 17.3477H120.166L118.202 11.9879V17.3477H117.383V10.8423Z" fill="white"/>
<path d="M127.162 10.8423H128.349L130.313 16.1612L132.277 10.8423H133.422V17.3477H132.645V11.9879L130.64 17.3477H129.945L127.981 11.9879V17.3477H127.162V10.8423Z" fill="white"/>
<path d="M136.941 10.8423H138.127L140.091 16.1612L142.055 10.8423H143.2V17.3477H142.423V11.9879L140.418 17.3477H139.723L137.759 11.9879V17.3477H136.941V10.8423Z" fill="white"/>
<path d="M5.15526 21.6847L3.15039 27.0036L1.18648 21.6847H0V28.1901H0.818289V22.8303L2.82306 28.1901H3.47773L5.4825 22.8303V28.1901H6.30078V21.6847H5.15526Z" fill="white"/>
<path d="M9.4104 21.6847H10.5969L12.5608 27.0036L14.5657 21.6847H15.7112V28.1901H14.8929V22.8303L12.8881 28.1901H12.1926L10.2287 22.8303V28.1901H9.4104V21.6847Z" fill="white"/>
<path d="M18.8208 21.6847H20.0073L21.9712 27.0036L23.9351 21.6847H25.0807V28.1901H24.3033V22.8303L22.2985 28.1901H21.603L19.6391 22.8303V28.1901H18.8208V21.6847Z" fill="white"/>
<path d="M28.2307 21.6847H29.4172L31.3811 27.0036L33.345 21.6847H34.4906V28.1901H33.7132V22.8303L31.7084 28.1901H31.0129L29.049 22.8303V28.1901H28.2307V21.6847Z" fill="white"/>
<path d="M37.6411 21.6847H38.8276L40.7915 27.0036L42.7554 21.6847H43.901V28.1901H43.1236V22.8303L41.1188 28.1901H40.4233L38.4594 22.8303V28.1901H37.6411V21.6847Z" fill="white"/>
<path d="M47.0515 21.6847H48.238L50.2019 27.0036L52.1658 21.6847H53.3114V28.1901H52.4932V22.8303L50.5292 28.1901H49.8337L47.8288 22.8303V28.1901H47.0515V21.6847Z" fill="white"/>
<path d="M56.4214 21.6847H57.608L59.6127 27.0036L61.5766 21.6847H62.7223V28.1901H61.904V22.8303L59.9401 28.1901H59.2445L57.2397 22.8303V28.1901H56.4214V21.6847Z" fill="white"/>
<path d="M65.8311 21.6847H67.0176L68.9815 27.0036L70.9863 21.6847H72.1319V28.1901H71.3137V22.8303L69.3497 28.1901H68.6542L66.6493 22.8303V28.1901H65.8311V21.6847Z" fill="white"/>
<path d="M75.2417 21.6847H76.4283L78.3922 27.0036L80.397 21.6847H81.5426V28.1901H80.7243V22.8303L78.7194 28.1901H78.0239L76.06 22.8303V28.1901H75.2417V21.6847Z" fill="white"/>
<path d="M84.6521 21.6847H85.8387L87.8026 27.0036L89.7664 21.6847H90.912V28.1901H90.1347V22.8303L88.1298 28.1901H87.4343L85.4704 22.8303V28.1901H84.6521V21.6847Z" fill="white"/>
<path d="M94.0625 21.6847H95.2491L97.213 27.0036L99.1768 21.6847H100.322V28.1901H99.5451V22.8303L97.5402 28.1901H96.8447L94.8808 22.8303V28.1901H94.0625V21.6847Z" fill="white"/>
<path d="M103.473 21.6847H104.659L106.623 27.0036L108.587 21.6847H109.733V28.1901H108.915V22.8303L106.951 28.1901H106.255L104.291 22.8303V28.1901H103.473V21.6847Z" fill="white"/>
<path d="M112.882 21.6847H114.069L116.033 27.0036L117.997 21.6847H119.142V28.1901H118.324V22.8303L116.36 28.1901H115.665L113.66 22.8303V28.1901H112.882V21.6847Z" fill="white"/>
<path d="M122.252 21.6847H123.439L125.444 27.0036L127.408 21.6847H128.553V28.1901H127.735V22.8303L125.771 28.1901H125.075L123.071 22.8303V28.1901H122.252V21.6847Z" fill="white"/>
<path d="M131.663 21.6847H132.849L134.813 27.0036L136.818 21.6847H137.964V28.1901H137.145V22.8303L135.181 28.1901H134.445L132.481 22.8303V28.1901H131.663V21.6847Z" fill="white"/>
<path d="M5.15526 32.5269L3.15039 37.8458L1.18648 32.5269H0V38.9914H0.818289V33.6725L2.82306 38.9914H3.47773L5.4825 33.6725V38.9914H6.30078V32.5269H5.15526Z" fill="white"/>
<path d="M10.1055 32.5269H11.292L13.2559 37.8458L15.2607 32.5269H16.4064V38.9914H15.5881V33.6725L13.6242 38.9914H12.9286L10.9238 33.6725V38.9914H10.1055V32.5269Z" fill="white"/>
<path d="M20.2122 32.5269H21.3987L23.3627 37.8458L25.3674 32.5269H26.513V38.9914H25.6948V33.6725L23.7308 38.9914H23.0353L21.0304 33.6725V38.9914H20.2122V32.5269Z" fill="white"/>
<path d="M30.3176 32.5269H31.5041L33.5089 37.8458L35.4728 32.5269H36.6184V38.9914H35.8001V33.6725L33.8362 38.9914H33.1407L31.1359 33.6725V38.9914H30.3176V32.5269Z" fill="white"/>
<path d="M40.4231 32.5269H41.6096L43.6144 37.8458L45.5783 32.5269H46.7239V38.9914H45.9056V33.6725L43.9417 38.9914H43.2462L41.2414 33.6725V38.9914H40.4231V32.5269Z" fill="white"/>
<path d="M50.5703 32.5269H51.7158L53.7207 37.8458L55.6846 32.5269H56.8301V38.9914H56.0119V33.6725L54.048 38.9914H53.3524L51.3476 33.6725V38.9914H50.5703V32.5269Z" fill="white"/>
<path d="M60.6758 32.5269H61.8623L63.8262 37.8458L65.7901 32.5269H66.9357V38.9914H66.1174V33.6725L64.1535 38.9914H63.458L61.4531 33.6725V38.9914H60.6758V32.5269Z" fill="white"/>
<path d="M70.7817 32.5269H71.9682L73.9321 37.8458L75.896 32.5269H77.0417V38.9914H76.2234V33.6725L74.2595 38.9914H73.5639L71.6 33.6725V38.9914H70.7817V32.5269Z" fill="white"/>
<path d="M80.8879 32.5269H82.0745L84.0383 37.8458L86.0022 32.5269H87.1479V38.9914H86.3296V33.6725L84.3657 38.9914H83.6701L81.7062 33.6725V38.9914H80.8879V32.5269Z" fill="white"/>
<path d="M90.9934 32.5269H92.18L94.1439 37.8458L96.1077 32.5269H97.2533V38.9914H96.435V33.6725L94.4711 38.9914H93.7756L91.8117 33.6725V38.9914H90.9934V32.5269Z" fill="white"/>
<path d="M101.099 32.5269H102.286L104.25 37.8458L106.213 32.5269H107.359V38.9914H106.582V33.6725L104.577 38.9914H103.881L101.917 33.6725V38.9914H101.099V32.5269Z" fill="white"/>
<path d="M111.206 32.5269H112.392L114.356 37.8458L116.32 32.5269H117.465V38.9914H116.688V33.6725L114.683 38.9914H113.988L112.024 33.6725V38.9914H111.206V32.5269Z" fill="white"/>
<path d="M121.311 32.5269H122.498L124.462 37.8458L126.426 32.5269H127.571V38.9914H126.794V33.6725L124.789 38.9914H124.093L122.13 33.6725V38.9914H121.311V32.5269Z" fill="white"/>
<path d="M131.417 32.5269H132.604L134.568 37.8458L136.532 32.5269H137.677V38.9914H136.9V33.6725L134.895 38.9914H134.2L132.236 33.6725V38.9914H131.417V32.5269Z" fill="white"/>
<path d="M141.523 32.5269H142.71L144.674 37.8458L146.638 32.5269H147.783V38.9914H147.006V33.6725L145.001 38.9914H144.306L142.342 33.6725V38.9914H141.523V32.5269Z" fill="white"/>
<path d="M5.15526 43.3694L3.15039 48.6883L1.18648 43.3694H0V49.8339H0.818289V44.515L2.82306 49.8339H3.47773L5.4825 44.515V49.8339H6.30078V43.3694H5.15526Z" fill="white"/>
<path d="M9.94238 43.3694H11.1289L13.0928 48.6883L15.0567 43.3694H16.2432V49.8339H15.4249V44.515L13.4201 49.8339H12.7246L10.7607 44.515V49.8339H9.94238V43.3694Z" fill="white"/>
<path d="M19.884 43.3694H21.0705L23.0344 48.6883L24.9983 43.3694H26.1439V49.8339H25.3665V44.515L23.3618 49.8339H22.6661L20.7023 44.515V49.8339H19.884V43.3694Z" fill="white"/>
<path d="M29.8264 43.3694H31.013L32.9769 48.6883L34.9407 43.3694H36.0863V49.8339H35.309V44.515L33.3041 49.8339H32.6086L30.6447 44.515V49.8339H29.8264V43.3694Z" fill="white"/>
<path d="M39.7688 43.3694H40.9144L42.9192 48.6883L44.8831 43.3694H46.0287V49.8339H45.2104V44.515L43.2465 49.8339H42.551L40.5462 44.515V49.8339H39.7688V43.3694Z" fill="white"/>
<path d="M49.6697 43.3694H50.8563L52.8202 48.6883L54.8249 43.3694H55.9706V49.8339H55.1523V44.515L53.1884 49.8339H52.4928L50.488 44.515V49.8339H49.6697V43.3694Z" fill="white"/>
<path d="M59.6121 43.3694H60.7986L62.7625 48.6883L64.7673 43.3694H65.9129V49.8339H65.0947V44.515L63.0898 49.8339H62.3943L60.4303 44.515V49.8339H59.6121V43.3694Z" fill="white"/>
<path d="M69.5544 43.3694H70.7409L72.7048 48.6883L74.6687 43.3694H75.8144V49.8339H75.0369V44.515L73.0322 49.8339H72.3366L70.3727 44.515V49.8339H69.5544V43.3694Z" fill="white"/>
<path d="M79.4968 43.3694H80.6833L82.6472 48.6883L84.6111 43.3694H85.7568V49.8339H84.9793V44.515L82.9746 49.8339H82.279L80.3151 44.515V49.8339H79.4968V43.3694Z" fill="white"/>
<path d="M89.4392 43.3694H90.6257L92.5896 48.6883L94.5535 43.3694H95.699V49.8339H94.8808V44.515L92.9169 49.8339H92.2213L90.2165 44.515V49.8339H89.4392V43.3694Z" fill="white"/>
<path d="M99.3401 43.3694H100.527L102.49 48.6883L104.495 43.3694H105.641V49.8339H104.823V44.515L102.859 49.8339H102.163L100.158 44.515V49.8339H99.3401V43.3694Z" fill="white"/>
<path d="M109.283 43.3694H110.469L112.433 48.6883L114.438 43.3694H115.583V49.8339H114.765V44.515L112.76 49.8339H112.065L110.101 44.515V49.8339H109.283V43.3694Z" fill="white"/>
<path d="M119.225 43.3694H120.412L122.376 48.6883L124.339 43.3694H125.485V49.8339H124.708V44.515L122.703 49.8339H122.007L120.043 44.515V49.8339H119.225V43.3694Z" fill="white"/>
<path d="M129.167 43.3694H130.354L132.318 48.6883L134.282 43.3694H135.427V49.8339H134.65V44.515L132.645 49.8339H131.95L129.986 44.515V49.8339H129.167V43.3694Z" fill="white"/>
<path d="M139.109 43.3694H140.295L142.259 48.6883L144.223 43.3694H145.369V49.8339H144.551V44.515L142.587 49.8339H141.891L139.927 44.515V49.8339H139.109V43.3694Z" fill="white"/>
<path d="M5.15526 54.2117L3.15039 59.5305L1.18648 54.2117H0V60.6761H0.818289V55.3573L2.82306 60.6761H3.47773L5.4825 55.3573V60.6761H6.30078V54.2117H5.15526Z" fill="white"/>
<path d="M9.69727 54.2117H10.8838L12.8886 59.5305L14.8525 54.2117H15.9982V60.6761H15.1799V55.3573L13.2159 60.6761H12.5204L10.5156 55.3573V60.6761H9.69727V54.2117Z" fill="white"/>
<path d="M19.4341 54.2117H20.6206L22.5845 59.5305L24.5484 54.2117H25.694V60.6761H24.8757V55.3573L22.9118 60.6761H22.2163L20.2524 55.3573V60.6761H19.4341V54.2117Z" fill="white"/>
<path d="M29.1313 54.2117H30.3179L32.2817 59.5305L34.2457 54.2117H35.3913V60.6761H34.6139V55.3573L32.6091 60.6761H31.9135L29.9496 55.3573V60.6761H29.1313V54.2117Z" fill="white"/>
<path d="M38.8274 54.2117H40.014L41.9779 59.5305L43.9417 54.2117H45.0873V60.6761H44.31V55.3573L42.3051 60.6761H41.6096L39.6457 55.3573V60.6761H38.8274V54.2117Z" fill="white"/>
<path d="M48.5247 54.2117H49.7111L51.6751 59.5305L53.6798 54.2117H54.8254V60.6761H54.0072V55.3573L52.0024 60.6761H51.3068L49.3429 55.3573V60.6761H48.5247V54.2117Z" fill="white"/>
<path d="M58.2209 54.2117H59.4074L61.3713 59.5305L63.3761 54.2117H64.5217V60.6761H63.7034V55.3573L61.7395 60.6761H61.044L59.0392 55.3573V60.6761H58.2209V54.2117Z" fill="white"/>
<path d="M67.9587 54.2117H69.1043L71.1091 59.5305L73.073 54.2117H74.2186V60.6761H73.4003V55.3573L71.4365 60.6761H70.7408L68.7361 55.3573V60.6761H67.9587V54.2117Z" fill="white"/>
<path d="M77.6558 54.2117H78.8422L80.8062 59.5305L82.7701 54.2117H83.9157V60.6761H83.0974V55.3573L81.1335 60.6761H80.438L78.4741 55.3573V60.6761H77.6558V54.2117Z" fill="white"/>
<path d="M87.3521 54.2117H88.5385L90.5024 59.5305L92.4664 54.2117H93.612V60.6761H92.8345V55.3573L90.8298 60.6761H90.1343L88.1703 55.3573V60.6761H87.3521V54.2117Z" fill="white"/>
<path d="M97.0493 54.2117H98.2359L100.2 59.5305L102.164 54.2117H103.309V60.6761H102.532V55.3573L100.527 60.6761H99.8315L97.8676 55.3573V60.6761H97.0493V54.2117Z" fill="white"/>
<path d="M106.746 54.2117H107.932L109.896 59.5305L111.901 54.2117H113.046V60.6761H112.228V55.3573L110.223 60.6761H109.528L107.564 55.3573V60.6761H106.746V54.2117Z" fill="white"/>
<path d="M116.443 54.2117H117.629L119.593 59.5305L121.598 54.2117H122.743V60.6761H121.925V55.3573L119.961 60.6761H119.266L117.261 55.3573V60.6761H116.443V54.2117Z" fill="white"/>
<path d="M126.181 54.2117H127.367L129.331 59.5305L131.295 54.2117H132.441V60.6761H131.622V55.3573L129.658 60.6761H128.963L126.958 55.3573V60.6761H126.181V54.2117Z" fill="white"/>
<path d="M135.877 54.2117H137.063L139.027 59.5305L140.991 54.2117H142.137V60.6761H141.359V55.3573L139.354 60.6761H138.659L136.695 55.3573V60.6761H135.877V54.2117Z" fill="white"/>
<path d="M5.15526 65.0541L3.15039 70.373L1.18648 65.0541H0V71.5186H0.818289V66.1997L2.82306 71.5186H3.47773L5.4825 66.1997V71.5186H6.30078V65.0541H5.15526Z" fill="white"/>
<path d="M9.90161 65.0541H11.0882L13.052 70.373L15.0159 65.0541H16.1615V71.5186H15.3433V66.1997L13.3793 71.5186H12.6838L10.7199 66.1997V71.5186H9.90161V65.0541Z" fill="white"/>
<path d="M19.7615 65.0541H20.948L22.9119 70.373L24.8758 65.0541H26.0214V71.5186H25.244V66.1997L23.2392 71.5186H22.5437L20.5798 66.1997V71.5186H19.7615V65.0541Z" fill="white"/>
<path d="M29.6218 65.0541H30.8084L32.7723 70.373L34.7771 65.0541H35.9227V71.5186H35.1044V66.1997L33.1405 71.5186H32.445L30.4401 66.1997V71.5186H29.6218V65.0541Z" fill="white"/>
<path d="M39.5234 65.0541H40.7099L42.6738 70.373L44.6377 65.0541H45.7833V71.5186H45.0059V66.1997L43.0012 71.5186H42.3055L40.3417 66.1997V71.5186H39.5234V65.0541Z" fill="white"/>
<path d="M49.384 65.0541H50.5706L52.5344 70.373L54.5393 65.0541H55.6849V71.5186H54.8666V66.1997L52.8618 71.5186H52.1662L50.2023 66.1997V71.5186H49.384V65.0541Z" fill="white"/>
<path d="M59.2444 65.0541H60.4309L62.4357 70.373L64.3995 65.0541H65.5452V71.5186H64.7269V66.1997L62.763 71.5186H62.0674L60.0627 66.1997V71.5186H59.2444V65.0541Z" fill="white"/>
<path d="M69.145 65.0541H70.3315L72.2954 70.373L74.2593 65.0541H75.4049V71.5186H74.6275V66.1997L72.6227 71.5186H71.9272L69.9633 66.1997V71.5186H69.145V65.0541Z" fill="white"/>
<path d="M79.0054 65.0541H80.1919L82.1558 70.373L84.1605 65.0541H85.3062V71.5186H84.4879V66.1997L82.4831 71.5186H81.7875L79.8237 66.1997V71.5186H79.0054V65.0541Z" fill="white"/>
<path d="M88.9075 65.0541H90.0939L92.0579 70.373L94.0218 65.0541H95.1674V71.5186H94.3491V66.1997L92.3852 71.5186H91.6897L89.6848 66.1997V71.5186H88.9075V65.0541Z" fill="white"/>
<path d="M98.7676 65.0541H99.9542L101.918 70.373L103.882 65.0541H105.028V71.5186H104.25V66.1997L102.245 71.5186H101.55L99.5859 66.1997V71.5186H98.7676V65.0541Z" fill="white"/>
<path d="M108.628 65.0541H109.814L111.778 70.373L113.783 65.0541H114.929V71.5186H114.11V66.1997L112.147 71.5186H111.451L109.446 66.1997V71.5186H108.628V65.0541Z" fill="white"/>
<path d="M118.529 65.0541H119.716L121.679 70.373L123.643 65.0541H124.789V71.5186H123.971V66.1997L122.007 71.5186H121.311L119.347 66.1997V71.5186H118.529V65.0541Z" fill="white"/>
<path d="M128.389 65.0541H129.576L131.54 70.373L133.504 65.0541H134.649V71.5186H133.872V66.1997L131.867 71.5186H131.172L129.208 66.1997V71.5186H128.389V65.0541Z" fill="white"/>
<path d="M138.25 65.0541H139.436L141.4 70.373L143.405 65.0541H144.551V71.5186H143.732V66.1997L141.768 71.5186H141.073L139.068 66.1997V71.5186H138.25V65.0541Z" fill="white"/>
<path d="M5.15526 75.8963L3.15039 81.2152L1.18648 75.8963H0V82.3608H0.818289V77.0419L2.82306 82.3608H3.47773L5.4825 77.0419V82.3608H6.30078V75.8963H5.15526Z" fill="white"/>
<path d="M10.1055 75.8963H11.292L13.2968 81.2152L15.2607 75.8963H16.4064V82.3608H15.5881V77.0419L13.6242 82.3608H12.9286L10.9238 77.0419V82.3608H10.1055V75.8963Z" fill="white"/>
<path d="M20.2527 75.8963H21.3983L23.4031 81.2152L25.367 75.8963H26.5126V82.3608H25.6943V77.0419L23.7304 82.3608H23.0349L21.03 77.0419V82.3608H20.2527V75.8963Z" fill="white"/>
<path d="M30.3582 75.8963H31.5447L33.5085 81.2152L35.4725 75.8963H36.6181V82.3608H35.7998V77.0419L33.8359 82.3608H33.1404L31.1764 77.0419V82.3608H30.3582V75.8963Z" fill="white"/>
<path d="M40.4648 75.8963H41.6514L43.6153 81.2152L45.5791 75.8963H46.7248V82.3608H45.9474V77.0419L43.9426 82.3608H43.247L41.2831 77.0419V82.3608H40.4648V75.8963Z" fill="white"/>
<path d="M50.5703 75.8963H51.7568L53.7207 81.2152L55.6846 75.8963H56.8301V82.3608H56.0528V77.0419L54.048 82.3608H53.3524L51.3886 77.0419V82.3608H50.5703V75.8963Z" fill="white"/>
<path d="M60.6758 75.8963H61.8623L63.8262 81.2152L65.7901 75.8963H66.9357V82.3608H66.1583V77.0419L64.1535 82.3608H63.458L61.4941 77.0419V82.3608H60.6758V75.8963Z" fill="white"/>
<path d="M70.7817 75.8963H71.9682L73.9321 81.2152L75.937 75.8963H77.0825V82.3608H76.2642V77.0419L74.2595 82.3608H73.5639L71.6 77.0419V82.3608H70.7817V75.8963Z" fill="white"/>
<path d="M80.8879 75.8963H82.0745L84.0383 81.2152L86.0432 75.8963H87.1888V82.3608H86.3705V77.0419L84.3657 82.3608H83.6701L81.7062 77.0419V82.3608H80.8879V75.8963Z" fill="white"/>
<path d="M90.9934 75.8963H92.18L94.1439 81.2152L96.1487 75.8963H97.2943V82.3608H96.476V77.0419L94.5121 82.3608H93.8166L91.8117 77.0419V82.3608H90.9934V75.8963Z" fill="white"/>
<path d="M101.141 75.8963H102.286L104.291 81.2152L106.255 75.8963H107.401V82.3608H106.582V77.0419L104.618 82.3608H103.923L101.918 77.0419V82.3608H101.141V75.8963Z" fill="white"/>
<path d="M111.246 75.8963H112.433L114.397 81.2152L116.36 75.8963H117.506V82.3608H116.688V77.0419L114.724 82.3608H114.028L112.064 77.0419V82.3608H111.246V75.8963Z" fill="white"/>
<path d="M121.353 75.8963H122.539L124.503 81.2152L126.467 75.8963H127.612V82.3608H126.835V77.0419L124.83 82.3608H124.135L122.171 77.0419V82.3608H121.353V75.8963Z" fill="white"/>
<path d="M131.458 75.8963H132.645L134.609 81.2152L136.573 75.8963H137.718V82.3608H136.941V77.0419L134.936 82.3608H134.24L132.277 77.0419V82.3608H131.458V75.8963Z" fill="white"/>
<path d="M141.564 75.8963H142.75L144.714 81.2152L146.678 75.8963H147.824V82.3608H147.046V77.0419L145.041 82.3608H144.346L142.382 77.0419V82.3608H141.564V75.8963Z" fill="white"/>
<path d="M5.15526 86.7386L3.15039 92.0575L1.18648 86.7386H0V93.2031H0.818289V87.8842L2.82306 93.2031H3.47773L5.4825 87.8842V93.2031H6.30078V86.7386H5.15526Z" fill="white"/>
<path d="M9.32861 86.7386H10.5151L12.479 92.0575L14.4429 86.7386H15.5885V93.2031H14.8111V87.8842L12.8063 93.2031H12.1108L10.1469 87.8842V93.2031H9.32861V86.7386Z" fill="white"/>
<path d="M18.6165 86.7386H19.8029L21.7668 92.0575L23.7717 86.7386H24.9172V93.2031H24.099V87.8842L22.0942 93.2031H21.3987L19.4347 87.8842V93.2031H18.6165V86.7386Z" fill="white"/>
<path d="M27.9446 86.7386H29.1311L31.095 92.0575L33.0589 86.7386H34.2045V93.2031H33.3862V87.8842L31.4223 93.2031H30.7268L28.7629 87.8842V93.2031H27.9446V86.7386Z" fill="white"/>
<path d="M37.2324 86.7386H38.4189L40.3828 92.0575L42.3467 86.7386H43.5332V93.2031H42.7149V87.8842L40.7101 93.2031H40.0146L38.0507 87.8842V93.2031H37.2324V86.7386Z" fill="white"/>
<path d="M46.5603 86.7386H47.7059L49.7107 92.0575L51.6746 86.7386H52.8202V93.2031H52.0019V87.8842L50.038 93.2031H49.3425L47.3376 87.8842V93.2031H46.5603V86.7386Z" fill="white"/>
<path d="M55.8481 86.7386H57.0346L58.9985 92.0575L60.9625 86.7386H62.1081V93.2031H61.3306V87.8842L59.3259 93.2031H58.6303L56.6664 87.8842V93.2031H55.8481V86.7386Z" fill="white"/>
<path d="M65.1357 86.7386H66.3223L68.2861 92.0575L70.291 86.7386H71.4366V93.2031H70.6183V87.8842L68.6544 93.2031H67.9589L65.954 87.8842V93.2031H65.1357V86.7386Z" fill="white"/>
<path d="M74.4644 86.7386H75.6508L77.6147 92.0575L79.5787 86.7386H80.7243V93.2031H79.9469V87.8842L77.9421 93.2031H77.2466L75.2826 87.8842V93.2031H74.4644V86.7386Z" fill="white"/>
<path d="M83.7522 86.7386H84.9388L86.9026 92.0575L88.9075 86.7386H90.0531V93.2031H89.2348V87.8842L87.2709 93.2031H86.5754L84.5705 87.8842V93.2031H83.7522V86.7386Z" fill="white"/>
<path d="M93.0806 86.7386H94.267L96.231 92.0575L98.1949 86.7386H99.3405V93.2031H98.5631V87.8842L96.5583 93.2031H95.8628L93.8989 87.8842V93.2031H93.0806V86.7386Z" fill="white"/>
<path d="M102.368 86.7386H103.554L105.518 92.0575L107.523 86.7386H108.669V93.2031H107.85V87.8842L105.845 93.2031H105.15L103.186 87.8842V93.2031H102.368V86.7386Z" fill="white"/>
<path d="M111.696 86.7386H112.883L114.846 92.0575L116.81 86.7386H117.956V93.2031H117.138V87.8842L115.174 93.2031H114.478L112.473 87.8842V93.2031H111.696V86.7386Z" fill="white"/>
<path d="M120.984 86.7386H122.17L124.134 92.0575L126.098 86.7386H127.285V93.2031H126.466V87.8842L124.462 93.2031H123.766L121.802 87.8842V93.2031H120.984V86.7386Z" fill="white"/>
<path d="M130.312 86.7386H131.458L133.463 92.0575L135.427 86.7386H136.572V93.2031H135.754V87.8842L133.79 93.2031H133.095L131.09 87.8842V93.2031H130.312V86.7386Z" fill="white"/>
<path d="M5.15526 97.5401L3.15039 102.9L1.18648 97.5401H0V104.045H0.818289V98.7266L2.82306 104.045H3.47773L5.4825 98.7266V104.045H6.30078V97.5401H5.15526Z" fill="white"/>
<path d="M9.81982 97.5401H11.0063L12.9702 102.9L14.9751 97.5401H16.1206V104.045H15.3023V98.7266L13.2976 104.045H12.602L10.6381 98.7266V104.045H9.81982V97.5401Z" fill="white"/>
<path d="M19.6387 97.5401H20.8252L22.7891 102.9L24.7939 97.5401H25.9395V104.045H25.1212V98.7266L23.1164 104.045H22.4209L20.457 98.7266V104.045H19.6387V97.5401Z" fill="white"/>
<path d="M29.4583 97.5401H30.6447L32.6086 102.9L34.5726 97.5401H35.759V104.045H34.9407V98.7266L32.936 104.045H32.2405L30.2765 98.7266V104.045H29.4583V97.5401Z" fill="white"/>
<path d="M39.2781 97.5401H40.4646L42.4285 102.9L44.3924 97.5401H45.538V104.045H44.7606V98.7266L42.7558 104.045H42.0603L40.0964 98.7266V104.045H39.2781V97.5401Z" fill="white"/>
<path d="M49.0972 97.5401H50.2836L52.2476 102.9L54.2115 97.5401H55.3571V104.045H54.5797V98.7266L52.5749 104.045H51.8794L49.9155 98.7266V104.045H49.0972V97.5401Z" fill="white"/>
<path d="M58.917 97.5401H60.1035L62.0674 102.9L64.0313 97.5401H65.1769V104.045H64.3995V98.7266L62.3947 104.045H61.6992L59.7353 98.7266V104.045H58.917V97.5401Z" fill="white"/>
<path d="M68.7366 97.5401H69.9231L71.887 102.9L73.8509 97.5401H74.9965V104.045H74.2191V98.7266L72.2143 104.045H71.5188L69.5549 98.7266V104.045H68.7366V97.5401Z" fill="white"/>
<path d="M78.5554 97.5401H79.7419L81.7058 102.9L83.6697 97.5401H84.8154V104.045H83.9971V98.7266L82.0331 104.045H81.3376L79.3737 98.7266V104.045H78.5554V97.5401Z" fill="white"/>
<path d="M88.3752 97.5401H89.5617L91.5256 102.9L93.4896 97.5401H94.6352V104.045H93.8169V98.7266L91.853 104.045H91.1574L89.1526 98.7266V104.045H88.3752V97.5401Z" fill="white"/>
<path d="M98.1943 97.5401H99.34L101.345 102.9L103.309 97.5401H104.454V104.045H103.636V98.7266L101.672 104.045H100.977L98.9717 98.7266V104.045H98.1943V97.5401Z" fill="white"/>
<path d="M107.973 97.5401H109.16L111.165 102.9L113.129 97.5401H114.274V104.045H113.456V98.7266L111.492 104.045H110.797L108.792 98.7266V104.045H107.973V97.5401Z" fill="white"/>
<path d="M117.792 97.5401H118.979L120.943 102.9L122.947 97.5401H124.093V104.045H123.275V98.7266L121.311 104.045H120.615L118.611 98.7266V104.045H117.792V97.5401Z" fill="white"/>
<path d="M127.612 97.5401H128.799L130.763 102.9L132.767 97.5401H133.913V104.045H133.095V98.7266L131.131 104.045H130.435L128.43 98.7266V104.045H127.612V97.5401Z" fill="white"/>
<path d="M137.431 97.5401H138.618L140.582 102.9L142.586 97.5401H143.732V104.045H142.914V98.7266L140.909 104.045H140.213L138.249 98.7266V104.045H137.431V97.5401Z" fill="white"/>
<path d="M5.15526 108.383L3.15039 113.742L1.18648 108.383H0V114.888H0.818289V109.528L2.82306 114.888H3.47773L5.4825 109.528V114.888H6.30078V108.383H5.15526Z" fill="white"/>
<path d="M9.45117 108.383H10.6377L12.6016 113.742L14.5655 108.383H15.711V114.888H14.9337V109.528L12.9289 114.888H12.2333L10.2695 109.528V114.888H9.45117V108.383Z" fill="white"/>
<path d="M18.8616 108.383H20.0481L22.012 113.742L24.0167 108.383H25.1624V114.888H24.3441V109.528L22.3802 114.888H21.6846L19.6799 109.528V114.888H18.8616V108.383Z" fill="white"/>
<path d="M28.3125 108.383H29.4991L31.4629 113.742L33.4268 108.383H34.5724V114.888H33.7951V109.528L31.7902 114.888H31.0947L29.1308 109.528V114.888H28.3125V108.383Z" fill="white"/>
<path d="M37.7231 108.383H38.9097L40.9145 113.742L42.8784 108.383H44.024V114.888H43.2057V109.528L41.2418 114.888H40.5463L38.5414 109.528V114.888H37.7231V108.383Z" fill="white"/>
<path d="M47.1741 108.383H48.3606L50.3245 113.742L52.2884 108.383H53.434V114.888H52.6566V109.528L50.6518 114.888H49.9563L47.9924 109.528V114.888H47.1741V108.383Z" fill="white"/>
<path d="M56.6262 108.383H57.7718L59.7767 113.742L61.7405 108.383H62.8862V114.888H62.0679V109.528L60.1039 114.888H59.4084L57.4037 109.528V114.888H56.6262V108.383Z" fill="white"/>
<path d="M66.0356 108.383H67.2222L69.1861 113.742L71.15 108.383H72.2956V114.888H71.5182V109.528L69.5134 114.888H68.8178L66.8539 109.528V114.888H66.0356V108.383Z" fill="white"/>
<path d="M75.4868 108.383H76.6733L78.6372 113.742L80.6011 108.383H81.7467V114.888H80.9285V109.528L78.9645 114.888H78.269L76.2642 109.528V114.888H75.4868V108.383Z" fill="white"/>
<path d="M84.8972 108.383H86.0837L88.0476 113.742L90.0115 108.383H91.198V114.888H90.3797V109.528L88.3749 114.888H87.6794L85.7155 109.528V114.888H84.8972V108.383Z" fill="white"/>
<path d="M94.3491 108.383H95.5356L97.4995 113.742L99.4634 108.383H100.609V114.888H99.7907V109.528L97.8268 114.888H97.1312L95.1674 109.528V114.888H94.3491V108.383Z" fill="white"/>
<path d="M103.759 108.383H104.945L106.909 113.742L108.914 108.383H110.06V114.888H109.241V109.528L107.237 114.888H106.541L104.577 109.528V114.888H103.759V108.383Z" fill="white"/>
<path d="M113.211 108.383H114.397L116.361 113.742L118.325 108.383H119.471V114.888H118.652V109.528L116.688 114.888H115.993L114.029 109.528V114.888H113.211V108.383Z" fill="white"/>
<path d="M122.62 108.383H123.807L125.771 113.742L127.775 108.383H128.921V114.888H128.103V109.528L126.098 114.888H125.402L123.438 109.528V114.888H122.62V108.383Z" fill="white"/>
<path d="M132.071 108.383H133.258L135.222 113.742L137.186 108.383H138.331V114.888H137.554V109.528L135.549 114.888H134.853L132.89 109.528V114.888H132.071V108.383Z" fill="white"/>
<path d="M5.15526 119.225L3.15039 124.585L1.18648 119.225H0V125.73H0.818289V120.37L2.82306 125.73H3.47773L5.4825 120.37V125.73H6.30078V119.225H5.15526Z" fill="white"/>
<path d="M9.98291 119.225H11.1695L13.1334 124.585L15.1382 119.225H16.2838V125.73H15.4655V120.37L13.5016 125.73H12.8061L10.8012 120.37V125.73H9.98291V119.225Z" fill="white"/>
<path d="M19.9658 119.225H21.1523L23.1572 124.585L25.121 119.225H26.2666V125.73H25.4483V120.37L23.4844 125.73H22.7889L20.7841 120.37V125.73H19.9658V119.225Z" fill="white"/>
<path d="M29.9905 119.225H31.1361L33.1409 124.585L35.1048 119.225H36.2504V125.73H35.4321V120.37L33.4682 125.73H32.7727L30.7678 120.37V125.73H29.9905V119.225Z" fill="white"/>
<path d="M39.9734 119.225H41.16L43.1238 124.585L45.0877 119.225H46.2333V125.73H45.415V120.37L43.4511 125.73H42.7556L40.7917 120.37V125.73H39.9734V119.225Z" fill="white"/>
<path d="M49.9563 119.225H51.1428L53.1067 124.585L55.0706 119.225H56.2161V125.73H55.3978V120.37L53.434 125.73H52.7384L50.7746 120.37V125.73H49.9563V119.225Z" fill="white"/>
<path d="M59.9395 119.225H61.1259L63.0898 124.585L65.0538 119.225H66.1994V125.73H65.4219V120.37L63.4172 125.73H62.7217L60.7577 120.37V125.73H59.9395V119.225Z" fill="white"/>
<path d="M69.9231 119.225H71.1097L73.0736 124.585L75.0374 119.225H76.183V125.73H75.4057V120.37L73.4008 125.73H72.7053L70.7414 120.37V125.73H69.9231V119.225Z" fill="white"/>
<path d="M79.906 119.225H81.0925L83.0564 124.585L85.0203 119.225H86.1659V125.73H85.3885V120.37L83.3837 125.73H82.6882L80.7243 120.37V125.73H79.906V119.225Z" fill="white"/>
<path d="M89.8889 119.225H91.0755L93.0393 124.585L95.0032 119.225H96.1488V125.73H95.3715V120.37L93.3666 125.73H92.6711L90.7072 120.37V125.73H89.8889V119.225Z" fill="white"/>
<path d="M99.8721 119.225H101.059L103.022 124.585L104.986 119.225H106.173V125.73H105.355V120.37L103.35 125.73H102.654L100.69 120.37V125.73H99.8721V119.225Z" fill="white"/>
<path d="M109.855 119.225H111.042L113.006 124.585L115.01 119.225H116.156V125.73H115.338V120.37L113.333 125.73H112.637L110.674 120.37V125.73H109.855V119.225Z" fill="white"/>
<path d="M119.838 119.225H121.025L122.989 124.585L124.993 119.225H126.139V125.73H125.321V120.37L123.316 125.73H122.62L120.656 120.37V125.73H119.838V119.225Z" fill="white"/>
<path d="M129.822 119.225H131.008L132.972 124.585L134.977 119.225H136.123V125.73H135.304V120.37L133.34 125.73H132.645L130.64 120.37V125.73H129.822V119.225Z" fill="white"/>
<path d="M139.805 119.225H140.991L142.955 124.585L144.96 119.225H146.106V125.73H145.287V120.37L143.323 125.73H142.628L140.623 120.37V125.73H139.805V119.225Z" fill="white"/>
<path d="M5.15526 130.067L3.15039 135.386L1.18648 130.067H0V136.573H0.818289V131.213L2.82306 136.573H3.47773L5.4825 131.213V136.573H6.30078V130.067H5.15526Z" fill="white"/>
<path d="M15.0159 130.067L13.052 135.386L11.0882 130.067H9.90161V136.573H10.7199V131.213L12.6838 136.573H13.3793L15.3842 131.213V136.573H16.1615V130.067H15.0159Z" fill="white"/>
<path d="M24.9166 130.067L22.9528 135.386L20.948 130.067H19.7615V136.573H20.5798V131.213L22.5845 136.573H23.2801L25.244 131.213V136.573H26.0623V130.067H24.9166Z" fill="white"/>
<path d="M34.7774 130.067L32.8135 135.386L30.8496 130.067H29.6631V136.573H30.4814V131.213L32.4453 136.573H33.1408L35.1456 131.213V136.573H35.923V130.067H34.7774Z" fill="white"/>
<path d="M44.6785 130.067L42.7146 135.386L40.7098 130.067H39.5642V136.573H40.3416V131.213L42.3464 136.573H43.0419L45.0059 131.213V136.573H45.8241V130.067H44.6785Z" fill="white"/>
<path d="M54.5797 130.067L52.575 135.386L50.611 130.067H49.4246V136.573H50.2428V131.213L52.2068 136.573H52.9023L54.9071 131.213V136.573H55.7253V130.067H54.5797Z" fill="white"/>
<path d="M64.4405 130.067L62.4766 135.386L60.5127 130.067H59.3262V136.573H60.1445V131.213L62.1084 136.573H62.8039L64.7678 131.213V136.573H65.5861V130.067H64.4405Z" fill="white"/>
<path d="M74.3419 130.067L72.3372 135.386L70.3732 130.067H69.1868V136.573H70.0051V131.213L71.9689 136.573H72.6645L74.6693 131.213V136.573H75.4876V130.067H74.3419Z" fill="white"/>
<path d="M84.202 130.067L82.238 135.386L80.2741 130.067H79.0876V136.573H79.9059V131.213L81.8698 136.573H82.5654L84.5701 131.213V136.573H85.3476V130.067H84.202Z" fill="white"/>
<path d="M94.103 130.067L92.0982 135.386L90.1343 130.067H88.9478V136.573H89.766V131.213L91.7709 136.573H92.4664L94.4303 131.213V136.573H95.2486V130.067H94.103Z" fill="white"/>
<path d="M103.964 130.067L102 135.386L100.036 130.067H98.8499V136.573H99.6681V131.213L101.632 136.573H102.328L104.332 131.213V136.573H105.11V130.067H103.964Z" fill="white"/>
<path d="M113.865 130.067L111.902 135.386L109.897 130.067H108.71V136.573H109.528V131.213L111.533 136.573H112.229L114.193 131.213V136.573H115.011V130.067H113.865Z" fill="white"/>
<path d="M123.725 130.067L121.761 135.386L119.797 130.067H118.611V136.573H119.429V131.213L121.393 136.573H122.089L124.093 131.213V136.573H124.871V130.067H123.725Z" fill="white"/>
<path d="M133.627 130.067L131.663 135.386L129.699 130.067H128.513V136.573H129.29V131.213L131.295 136.573H131.991L133.954 131.213V136.573H134.773V130.067H133.627Z" fill="white"/>
<path d="M143.528 130.067L141.523 135.386L139.559 130.067H138.372V136.573H139.191V131.213L141.155 136.573H141.85L143.855 131.213V136.573H144.673V130.067H143.528Z" fill="white"/>
<path d="M153.921 0.00140381H155.107L157.071 5.32028L159.035 0.00140381H160.181V6.5068H159.362V1.14701L157.398 6.5068H156.703L154.698 1.14701V6.5068H153.921V0.00140381Z" fill="white"/>
<path d="M163.209 0H164.395L166.359 5.31888L168.323 0H169.469V6.5054H168.691V1.14561L166.687 6.5054H165.991L164.027 1.14561V6.5054H163.209V0Z" fill="white"/>
<path d="M172.496 0H173.682L175.687 5.31888L177.651 0H178.797V6.5054H177.978V1.14561L176.014 6.5054H175.319L173.314 1.14561V6.5054H172.496V0Z" fill="white"/>
<path d="M181.824 0H183.011L184.975 5.31888L186.939 0H188.084V6.5054H187.307V1.14561L185.302 6.5054H184.607L182.643 1.14561V6.5054H181.824V0Z" fill="white"/>
<path d="M191.112 0H192.299L194.263 5.31888L196.267 0H197.413V6.5054H196.595V1.14561L194.631 6.5054H193.935L191.93 1.14561V6.5054H191.112V0Z" fill="white"/>
<path d="M200.441 0H201.627L203.591 5.31888L205.555 0H206.701V6.5054H205.923V1.14561L203.918 6.5054H203.223L201.259 1.14561V6.5054H200.441V0Z" fill="white"/>
<path d="M153.225 10.8424H154.411L156.375 16.1613L158.339 10.8424H159.485V17.3478H158.707V11.988L156.702 17.3478H156.007L154.043 11.988V17.3478H153.225V10.8424Z" fill="white"/>
<path d="M162.513 10.8425H163.7L165.663 16.1614L167.668 10.8425H168.814V17.3479H167.996V11.9881L166.032 17.3479H165.336L163.331 11.9881V17.3479H162.513V10.8425Z" fill="white"/>
<path d="M171.841 10.8425H173.028L174.992 16.1614L176.956 10.8425H178.101V17.3479H177.324V11.9881L175.319 17.3479H174.624L172.66 11.9881V17.3479H171.841V10.8425Z" fill="white"/>
<path d="M181.128 10.8425H182.315L184.279 16.1614L186.284 10.8425H187.429V17.3479H186.611V11.9881L184.647 17.3479H183.951L181.947 11.9881V17.3479H181.128V10.8425Z" fill="white"/>
<path d="M190.458 10.8425H191.644L193.608 16.1614L195.572 10.8425H196.718V17.3479H195.94V11.9881L193.935 17.3479H193.24L191.276 11.9881V17.3479H190.458V10.8425Z" fill="white"/>
<path d="M199.745 10.8425H200.931L202.895 16.1614L204.9 10.8425H206.046V17.3479H205.227V11.9881L203.222 17.3479H202.527L200.563 11.9881V17.3479H199.745V10.8425Z" fill="white"/>
<path d="M150.565 21.6864H151.752L153.715 27.0053L155.679 21.6864H156.825V28.1509H156.048V22.832L154.043 28.1509H153.347L151.383 22.832V28.1509H150.565V21.6864Z" fill="white"/>
<path d="M159.853 21.6845H161.039L163.003 27.0034L165.008 21.6845H166.153V28.149H165.335V22.8301L163.33 28.149H162.635L160.671 22.8301V28.149H159.853V21.6845Z" fill="white"/>
<path d="M169.181 21.6845H170.367L172.331 27.0034L174.295 21.6845H175.441V28.149H174.623V22.8301L172.659 28.149H171.963L169.999 22.8301V28.149H169.181V21.6845Z" fill="white"/>
<path d="M178.468 21.6845H179.655L181.618 27.0034L183.623 21.6845H184.769V28.149H183.951V22.8301L181.946 28.149H181.25L179.286 22.8301V28.149H178.468V21.6845Z" fill="white"/>
<path d="M187.797 21.6845H188.983L190.947 27.0034L192.911 21.6845H194.056V28.149H193.238V22.8301L191.274 28.149H190.579L188.574 22.8301V28.149H187.797V21.6845Z" fill="white"/>
<path d="M154.861 32.5272H156.047L158.011 37.8461L160.016 32.5272H161.162V38.9917H160.343V33.6728L158.38 38.9917H157.684L155.679 33.6728V38.9917H154.861V32.5272Z" fill="white"/>
<path d="M164.19 32.5267H165.376L167.34 37.8456L169.304 32.5267H170.45V38.9912H169.672V33.6723L167.667 38.9912H166.972L165.008 33.6723V38.9912H164.19V32.5267Z" fill="white"/>
<path d="M173.478 32.5267H174.664L176.628 37.8456L178.633 32.5267H179.778V38.9912H178.96V33.6723L176.955 38.9912H176.26L174.296 33.6723V38.9912H173.478V32.5267Z" fill="white"/>
<path d="M182.806 32.5267H183.993L185.957 37.8456L187.92 32.5267H189.066V38.9912H188.248V33.6723L186.284 38.9912H185.588L183.624 33.6723V38.9912H182.806V32.5267Z" fill="white"/>
<path d="M192.094 32.5267H193.28L195.244 37.8456L197.249 32.5267H198.395V38.9912H197.576V33.6723L195.572 38.9912H194.876L192.912 33.6723V38.9912H192.094V32.5267Z" fill="white"/>
<path d="M152.57 43.3697H153.757L155.721 48.6886L157.684 43.3697H158.83V49.8342H158.053V44.5153L156.048 49.8342H155.352L153.388 44.5153V49.8342H152.57V43.3697Z" fill="white"/>
<path d="M161.858 43.3694H163.045L165.009 48.6883L167.013 43.3694H168.159V49.8339H167.341V44.515L165.377 49.8339H164.681L162.677 44.515V49.8339H161.858V43.3694Z" fill="white"/>
<path d="M171.187 43.3694H172.373L174.337 48.6883L176.301 43.3694H177.447V49.8339H176.669V44.515L174.664 49.8339H173.969L172.005 44.515V49.8339H171.187V43.3694Z" fill="white"/>
<path d="M180.474 43.3694H181.66L183.624 48.6883L185.629 43.3694H186.774V49.8339H185.956V44.515L183.951 49.8339H183.256L181.292 44.515V49.8339H180.474V43.3694Z" fill="white"/>
<path d="M189.802 43.3694H190.989L192.953 48.6883L194.916 43.3694H196.062V49.8339H195.244V44.515L193.28 49.8339H192.584L190.62 44.515V49.8339H189.802V43.3694Z" fill="white"/>
<path d="M199.09 43.3694H200.276L202.24 48.6883L204.245 43.3694H205.391V49.8339H204.572V44.515L202.568 49.8339H201.872L199.908 44.515V49.8339H199.09V43.3694Z" fill="white"/>
<path d="M151.588 54.2118H152.775L154.739 59.5307L156.744 54.2118H157.889V60.6763H157.071V55.3574L155.066 60.6763H154.37L152.407 55.3574V60.6763H151.588V54.2118Z" fill="white"/>
<path d="M160.917 54.2118H162.104L164.068 59.5307L166.031 54.2118H167.177V60.6763H166.359V55.3574L164.395 60.6763H163.699L161.735 55.3574V60.6763H160.917V54.2118Z" fill="white"/>
<path d="M170.205 54.2118H171.391L173.355 59.5307L175.319 54.2118H176.465V60.6763H175.687V55.3574L173.683 60.6763H172.987L171.023 55.3574V60.6763H170.205V54.2118Z" fill="white"/>
<path d="M179.533 54.2118H180.679L182.684 59.5307L184.648 54.2118H185.793V60.6763H184.975V55.3574L183.011 60.6763H182.316L180.311 55.3574V60.6763H179.533V54.2118Z" fill="white"/>
<path d="M188.82 54.2118H190.007L191.971 59.5307L193.935 54.2118H195.08V60.6763H194.303V55.3574L192.298 60.6763H191.603L189.639 55.3574V60.6763H188.82V54.2118Z" fill="white"/>
<path d="M198.108 54.2118H199.295L201.259 59.5307L203.264 54.2118H204.409V60.6763H203.591V55.3574L201.627 60.6763H200.931L198.927 55.3574V60.6763H198.108V54.2118Z" fill="white"/>
<path d="M157.153 65.054H158.339L160.303 70.3728L162.308 65.054H163.453V71.5184H162.635V66.1996L160.671 71.5184H159.976L157.971 66.1996V71.5184H157.153V65.054Z" fill="white"/>
<path d="M166.481 65.0539H167.668L169.632 70.3728L171.595 65.0539H172.741V71.5184H171.964V66.1995L169.959 71.5184H169.263L167.299 66.1995V71.5184H166.481V65.0539Z" fill="white"/>
<path d="M175.768 65.0539H176.955L178.918 70.3728L180.923 65.0539H182.069V71.5184H181.251V66.1995L179.287 71.5184H178.55L176.586 66.1995V71.5184H175.768V65.0539Z" fill="white"/>
<path d="M185.097 65.0539H186.283L188.247 70.3728L190.211 65.0539H191.356V71.5184H190.538V66.1995L188.574 71.5184H187.879L185.915 66.1995V71.5184H185.097V65.0539Z" fill="white"/>
<path d="M194.384 65.0539H195.571L197.535 70.3728L199.54 65.0539H200.685V71.5184H199.867V66.1995L197.862 71.5184H197.167L195.203 66.1995V71.5184H194.384V65.0539Z" fill="white"/>
<path d="M154.371 75.8977H155.557L157.521 81.2166L159.485 75.8977H160.631V82.3622H159.853V77.0433L157.848 82.3622H157.153L155.189 77.0433V82.3622H154.371V75.8977Z" fill="white"/>
<path d="M163.659 75.8963H164.845L166.809 81.2152L168.814 75.8963H169.959V82.3608H169.141V77.0419L167.136 82.3608H166.441L164.477 77.0419V82.3608H163.659V75.8963Z" fill="white"/>
<path d="M172.986 75.8963H174.173L176.137 81.2152L178.101 75.8963H179.246V82.3608H178.428V77.0419L176.464 82.3608H175.769L173.805 77.0419V82.3608H172.986V75.8963Z" fill="white"/>
<path d="M182.274 75.8963H183.461L185.425 81.2152L187.43 75.8963H188.575V82.3608H187.757V77.0419L185.752 82.3608H185.057L183.093 77.0419V82.3608H182.274V75.8963Z" fill="white"/>
<path d="M191.603 75.8963H192.789L194.753 81.2152L196.717 75.8963H197.863V82.3608H197.044V77.0419L195.08 82.3608H194.385L192.421 77.0419V82.3608H191.603V75.8963Z" fill="white"/>
<path d="M200.891 75.8963H202.077L204.041 81.2152L206.005 75.8963H207.15V82.3608H206.373V77.0419L204.368 82.3608H203.673L201.709 77.0419V82.3608H200.891V75.8963Z" fill="white"/>
<path d="M149.87 86.7386H151.056L153.02 92.0575L154.984 86.7386H156.13V93.2031H155.352V87.8842L153.348 93.2031H152.652L150.688 87.8842V93.2031H149.87V86.7386Z" fill="white"/>
<path d="M159.158 86.7386H160.345L162.309 92.0575L164.313 86.7386H165.459V93.2031H164.641V87.8842L162.677 93.2031H161.981L159.976 87.8842V93.2031H159.158V86.7386Z" fill="white"/>
<path d="M168.487 86.7386H169.673L171.637 92.0575L173.601 86.7386H174.747V93.2031H173.969V87.8842L171.964 93.2031H171.269L169.305 87.8842V93.2031H168.487V86.7386Z" fill="white"/>
<path d="M177.775 86.7386H178.961L180.925 92.0575L182.93 86.7386H184.075V93.2031H183.257V87.8842L181.293 93.2031H180.557L178.593 87.8842V93.2031H177.775V86.7386Z" fill="white"/>
<path d="M187.103 86.7386H188.29L190.253 92.0575L192.217 86.7386H193.363V93.2031H192.545V87.8842L190.581 93.2031H189.885L187.921 87.8842V93.2031H187.103V86.7386Z" fill="white"/>
<path d="M151.302 97.5402H152.447L154.452 102.9L156.416 97.5402H157.561V104.046H156.743V98.7267L154.779 104.046H154.084L152.079 98.7267V104.046H151.302V97.5402Z" fill="white"/>
<path d="M160.589 97.5403H161.776L163.74 102.9L165.704 97.5403H166.849V104.046H166.072V98.7269L164.067 104.046H163.372L161.408 98.7269V104.046H160.589V97.5403Z" fill="white"/>
<path d="M169.877 97.5403H171.063L173.027 102.9L175.032 97.5403H176.177V104.046H175.359V98.7269L173.395 104.046H172.7L170.695 98.7269V104.046H169.877V97.5403Z" fill="white"/>
<path d="M179.205 97.5403H180.391L182.355 102.9L184.319 97.5403H185.465V104.046H184.687V98.7269L182.683 104.046H181.987L180.023 98.7269V104.046H179.205V97.5403Z" fill="white"/>
<path d="M188.493 97.5403H189.679L191.643 102.9L193.648 97.5403H194.794V104.046H193.975V98.7269L192.011 104.046H191.275L189.311 98.7269V104.046H188.493V97.5403Z" fill="white"/>
<path d="M197.821 97.5403H199.008L200.972 102.9L202.935 97.5403H204.081V104.046H203.263V98.7269L201.299 104.046H200.603L198.639 98.7269V104.046H197.821V97.5403Z" fill="white"/>
<path d="M217.092 0.00140381H218.279L220.242 5.32028L222.206 0.00140381H223.352V6.5068H222.534V1.14701L220.57 6.5068H219.874L217.91 1.14701V6.5068H217.092V0.00140381Z" fill="white"/>
<path d="M226.38 0H227.567L229.531 5.31888L231.494 0H232.681V6.5054H231.863V1.14561L229.858 6.5054H229.162L227.198 1.14561V6.5054H226.38V0Z" fill="white"/>
<path d="M235.709 0H236.895L238.859 5.31888L240.823 0H241.968V6.5054H241.15V1.14561L239.186 6.5054H238.491L236.486 1.14561V6.5054H235.709V0Z" fill="white"/>
<path d="M244.995 0H246.182L248.146 5.31888L250.11 0H251.255V6.5054H250.478V1.14561L248.473 6.5054H247.778L245.814 1.14561V6.5054H244.995V0Z" fill="white"/>
<path d="M213.123 10.8424H214.269L216.274 16.1613L218.238 10.8424H219.383V17.3478H218.565V11.988L216.601 17.3478H215.905L213.901 11.988V17.3478H213.123V10.8424Z" fill="white"/>
<path d="M222.411 10.8425H223.597L225.561 16.1614L227.525 10.8425H228.671V17.3479H227.893V11.9881L225.889 17.3479H225.193L223.229 11.9881V17.3479H222.411V10.8425Z" fill="white"/>
<path d="M231.698 10.8425H232.884L234.889 16.1614L236.853 10.8425H237.999V17.3479H237.18V11.9881L235.216 17.3479H234.521L232.516 11.9881V17.3479H231.698V10.8425Z" fill="white"/>
<path d="M241.026 10.8425H242.213L244.177 16.1614L246.141 10.8425H247.286V17.3479H246.509V11.9881L244.504 17.3479H243.808L241.845 11.9881V17.3479H241.026V10.8425Z" fill="white"/>
<path d="M213.451 21.6864H214.637L216.601 27.0053L218.565 21.6864H219.711V28.1509H218.892V22.832L216.928 28.1509H216.233L214.269 22.832V28.1509H213.451V21.6864Z" fill="white"/>
<path d="M222.739 21.6845H223.926L225.89 27.0034L227.853 21.6845H228.999V28.149H228.222V22.8301L226.217 28.149H225.521L223.557 22.8301V28.149H222.739V21.6845Z" fill="white"/>
<path d="M232.067 21.6845H233.213L235.218 27.0034L237.182 21.6845H238.327V28.149H237.509V22.8301L235.545 28.149H234.849L232.845 22.8301V28.149H232.067V21.6845Z" fill="white"/>
<path d="M241.355 21.6845H242.542L244.506 27.0034L246.469 21.6845H247.615V28.149H246.838V22.8301L244.833 28.149H244.137L242.173 22.8301V28.149H241.355V21.6845Z" fill="white"/>
<path d="M220.324 32.5272H221.51L223.515 37.8461L225.479 32.5272H226.625V38.9917H225.806V33.6728L223.843 38.9917H223.147L221.142 33.6728V38.9917H220.324V32.5272Z" fill="white"/>
<path d="M229.652 32.5267H230.838L232.802 37.8456L234.766 32.5267H235.912V38.9912H235.134V33.6723L233.129 38.9912H232.434L230.47 33.6723V38.9912H229.652V32.5267Z" fill="white"/>
<path d="M238.94 32.5267H240.126L242.09 37.8456L244.095 32.5267H245.24V38.9912H244.422V33.6723L242.458 38.9912H241.763L239.758 33.6723V38.9912H238.94V32.5267Z" fill="white"/>
<path d="M213.615 43.3697H214.801L216.765 48.6886L218.729 43.3697H219.874V49.8342H219.056V44.5153L217.092 49.8342H216.397L214.392 44.5153V49.8342H213.615V43.3697Z" fill="white"/>
<path d="M222.902 43.3694H224.089L226.052 48.6883L228.016 43.3694H229.203V49.8339H228.385V44.515L226.38 49.8339H225.684L223.72 44.515V49.8339H222.902V43.3694Z" fill="white"/>
<path d="M232.231 43.3694H233.376L235.381 48.6883L237.345 43.3694H238.49V49.8339H237.672V44.515L235.708 49.8339H235.013L233.008 44.515V49.8339H232.231V43.3694Z" fill="white"/>
<path d="M241.517 43.3694H242.704L244.668 48.6883L246.632 43.3694H247.777V49.8339H247V44.515L244.995 49.8339H244.3L242.336 44.515V49.8339H241.517V43.3694Z" fill="white"/>
<path d="M216.683 54.2118H217.869L219.833 59.5307L221.838 54.2118H222.984V60.6763H222.165V55.3574L220.16 60.6763H219.465L217.501 55.3574V60.6763H216.683V54.2118Z" fill="white"/>
<path d="M226.011 54.2118H227.197L229.161 59.5307L231.125 54.2118H232.271V60.6763H231.452V55.3574L229.488 60.6763H228.793L226.788 55.3574V60.6763H226.011V54.2118Z" fill="white"/>
<path d="M235.299 54.2118H236.485L238.449 59.5307L240.413 54.2118H241.559V60.6763H240.781V55.3574L238.776 60.6763H238.081L236.117 55.3574V60.6763H235.299V54.2118Z" fill="white"/>
<path d="M244.587 54.2118H245.773L247.778 59.5307L249.742 54.2118H250.887V60.6763H250.069V55.3574L248.105 60.6763H247.41L245.405 55.3574V60.6763H244.587V54.2118Z" fill="white"/>
<path d="M211.445 65.054H212.632L214.596 70.3728L216.56 65.054H217.705V71.5184H216.928V66.1996L214.923 71.5184H214.228L212.264 66.1996V71.5184H211.445V65.054Z" fill="white"/>
<path d="M220.734 65.0539H221.92L223.925 70.3728L225.889 65.0539H227.034V71.5184H226.216V66.1995L224.252 71.5184H223.557L221.552 66.1995V71.5184H220.734V65.0539Z" fill="white"/>
<path d="M230.062 65.0539H231.249L233.213 70.3728L235.176 65.0539H236.322V71.5184H235.545V66.1995L233.54 71.5184H232.844L230.88 66.1995V71.5184H230.062V65.0539Z" fill="white"/>
<path d="M239.35 65.0539H240.536L242.5 70.3728L244.505 65.0539H245.651V71.5184H244.832V66.1995L242.869 71.5184H242.173L240.168 66.1995V71.5184H239.35V65.0539Z" fill="white"/>
<path d="M266.026 0H267.213L269.176 5.31888L271.181 0H272.327V6.5054H271.509V1.14561L269.545 6.5054H268.808L266.844 1.14561V6.5054H266.026V0Z" fill="white"/>
<path d="M251.133 10.8423H252.32L254.284 16.1612L256.247 10.8423H257.393V17.3477H256.575V11.9879L254.611 17.3477H253.915L251.911 11.9879V17.3477H251.133V10.8423Z" fill="white"/>
<path d="M264.512 10.8423H265.699L267.663 16.1612L269.667 10.8423H270.813V17.3477H269.995V11.9879L267.99 17.3477H267.294L265.33 11.9879V17.3477H264.512V10.8423Z" fill="white"/>
<path d="M285.583 10.8423H286.769L288.733 16.1612L290.738 10.8423H291.883V17.3477H291.065V11.9879L289.06 17.3477H288.365L286.401 11.9879V17.3477H285.583V10.8423Z" fill="white"/>
<path d="M251.46 21.6847H252.647L254.611 27.0036L256.575 21.6847H257.72V28.1492H256.902V22.8303L254.938 28.1492H254.242L252.278 22.8303V28.1492H251.46V21.6847Z" fill="white"/>
<path d="M267.662 32.5269H268.849L270.813 37.8458L272.777 32.5269H273.922V38.9914H273.145V33.6725L271.14 38.9914H270.445L268.481 33.6725V38.9914H267.662V32.5269Z" fill="white"/>
<path d="M248.637 32.5269H249.823L251.828 37.8458L253.792 32.5269H254.937V38.9914H254.119V33.6725L252.155 38.9914H251.46L249.455 33.6725V38.9914H248.637V32.5269Z" fill="white"/>
<path d="M281.082 32.5269H282.269L284.232 37.8458L286.196 32.5269H287.342V38.9914H286.524V33.6725L284.56 38.9914H283.864L281.859 33.6725V38.9914H281.082V32.5269Z" fill="white"/>
<path d="M260.911 43.3694H262.098L264.062 48.6883L266.067 43.3694H267.212V49.8339H266.394V44.515L264.389 49.8339H263.694L261.73 44.515V49.8339H260.911V43.3694Z" fill="white"/>
<path d="M254.693 54.2117H255.879L257.843 59.5305L259.848 54.2117H260.993V60.6761H260.175V55.3573L258.17 60.6761H257.475L255.511 55.3573V60.6761H254.693V54.2117Z" fill="white"/>
<path d="M273.309 54.2117H274.495L276.459 59.5305L278.464 54.2117H279.609V60.6761H278.791V55.3573L276.786 60.6761H276.091L274.127 55.3573V60.6761H273.309V54.2117Z" fill="white"/>
<path d="M249.455 65.0541H250.642L252.606 70.373L254.57 65.0541H255.756V71.5186H254.938V66.1997L252.933 71.5186H252.237L250.273 66.1997V71.5186H249.455V65.0541Z" fill="white"/>
<path d="M258.784 65.0541H259.97L261.934 70.373L263.898 65.0541H265.044V71.5186H264.225V66.1997L262.261 71.5186H261.566L259.561 66.1997V71.5186H258.784V65.0541Z" fill="white"/>
</svg>