<svg xmlns:xlink="http://www.w3.org/1999/xlink" xmlns="http://www.w3.org/2000/svg" width="249" height="123" viewBox="0 0 249 123" fill="none">
<path d="M116.442 0H117.629L119.593 5.35979L121.598 0H122.743V6.5054H121.925V1.1456L119.92 6.5054H119.224L117.22 1.1456V6.5054H116.401V0H116.442Z" fill="white"/>
<path d="M87.6799 10.5971H88.8663L90.8302 15.9569L92.8349 10.5971H93.9807V17.1025H93.1624V11.7427L91.1576 17.1025H90.462L88.4572 11.7427V17.1025H87.6389V10.5971H87.6799Z" fill="white"/>
<path d="M154.207 10.5971H155.393L157.357 15.9569L159.362 10.5971H160.508V17.1025H159.689V11.7427L157.684 17.1025H156.989L154.984 11.7427V17.1025H154.166V10.5971H154.207Z" fill="white"/>
<path d="M72.5002 21.1935H73.6867L75.6505 26.5533L77.6554 21.1935H78.801V27.6989H77.9827V22.3391L75.9779 27.6989H75.2823L73.2775 22.3391V27.6989H72.4592V21.1935H72.5002Z" fill="white"/>
<path d="M104.782 21.1935H105.968L107.932 26.5533L109.937 21.1935H111.082V27.6989H110.264V22.3391L108.259 27.6989H107.564L105.559 22.3391V27.6989H104.741V21.1935H104.782Z" fill="white"/>
<path d="M137.104 21.1935H138.291L140.255 26.5533L142.26 21.1935H143.405V27.6989H142.587V22.3391L140.582 27.6989H139.886L137.882 22.3391V27.6989H137.063V21.1935H137.104Z" fill="white"/>
<path d="M169.386 21.1935H170.572L172.536 26.5533L174.541 21.1935H175.686V27.6989H174.868V22.3391L172.863 27.6989H172.168L170.163 22.3391V27.6989H169.345V21.1935H169.386Z" fill="white"/>
<path d="M61.1667 31.7495H62.3532L64.3172 37.1093L66.3219 31.7495H67.4675V38.2549H66.6492V32.8951L64.6444 38.2549H63.949L61.944 32.8951V38.2549H61.1257V31.7495H61.1667Z" fill="white"/>
<path d="M85.0615 31.7495H86.2482L88.212 37.1093L90.2168 31.7495H91.3625V38.2549H90.5442V32.8951L88.5392 38.2549H87.8438L85.839 32.8951V38.2549H85.0208V31.7495H85.0615Z" fill="white"/>
<path d="M108.996 31.7495H110.183L112.147 37.1093L114.151 31.7495H115.297V38.2549H114.479V32.8951L112.474 38.2549H111.778L109.774 32.8951V38.2549H108.955V31.7495H108.996Z" fill="white"/>
<path d="M132.89 31.7495H134.077L136.041 37.1093L138.045 31.7495H139.191V38.2549H138.373V32.8951L136.368 38.2549H135.672L133.668 32.8951V38.2549H132.849V31.7495H132.89Z" fill="white"/>
<path d="M156.825 31.7495H158.011L159.975 37.1093L161.98 31.7495H163.126V38.2549H162.307V32.8951L160.303 38.2549H159.607L157.602 32.8951V38.2549H156.784V31.7495H156.825Z" fill="white"/>
<path d="M180.719 31.7495H181.905L183.869 37.1093L185.874 31.7495H187.02V38.2549H186.201V32.8951L184.197 38.2549H183.501L181.496 32.8951V38.2549H180.678V31.7495H180.719Z" fill="white"/>
<path d="M51.9203 42.3465H53.1069L55.0708 47.7063L57.0755 42.3465H58.2213V48.8519H57.403V43.4921L55.398 48.8519H54.7026L52.6978 43.4921V48.8519H51.8795V42.3465H51.9203Z" fill="white"/>
<path d="M71.6409 42.3465H72.8274L74.7914 47.7063L76.7962 42.3465H77.9417V48.8519H77.1234V43.4921L75.1187 48.8519H74.423L72.4183 43.4921V48.8519H71.6V42.3465H71.6409Z" fill="white"/>
<path d="M91.3618 42.3465H92.5482L94.512 47.7063L96.5168 42.3465H97.6625V48.8519H96.8443V43.4921L94.8395 48.8519H94.1439L92.1391 43.4921V48.8519H91.3208V42.3465H91.3618Z" fill="white"/>
<path d="M111.083 42.3465H112.269L114.233 47.7063L116.238 42.3465H117.383V48.8519H116.565V43.4921L114.56 48.8519H113.865L111.86 43.4921V48.8519H111.042V42.3465H111.083Z" fill="white"/>
<path d="M130.803 42.3465H131.99L133.954 47.7063L135.959 42.3465H137.104V48.8519H136.286V43.4921L134.281 48.8519H133.585L131.581 43.4921V48.8519H130.762V42.3465H130.803Z" fill="white"/>
<path d="M150.525 42.3465H151.711L153.675 47.7063L155.68 42.3465H156.826V48.8519H156.007V43.4921L154.002 48.8519H153.307L151.302 43.4921V48.8519H150.484V42.3465H150.525Z" fill="white"/>
<path d="M170.245 42.3465H171.431L173.395 47.7063L175.4 42.3465H176.545V48.8519H175.727V43.4921L173.722 48.8519H173.027L171.022 43.4921V48.8519H170.204V42.3465H170.245Z" fill="white"/>
<path d="M189.966 42.3465H191.153L193.116 47.7063L195.121 42.3465H196.267V48.8519H195.449V43.4921L193.444 48.8519H192.748L190.743 43.4921V48.8519H189.925V42.3465H189.966Z" fill="white"/>
<path d="M44.1468 52.9435H45.3335L47.2973 58.3033L49.3021 52.9435H50.4478V59.4489H49.6295V54.0891L47.6246 59.4489H46.9291L44.9244 54.0891V59.4489H44.1061V52.9435H44.1468Z" fill="white"/>
<path d="M61.2081 52.9435H62.3945L64.3586 58.3033L66.3633 52.9435H67.5089V59.4489H66.6906V54.0891L64.6858 59.4489H63.9902L61.9854 54.0891V59.4489H61.1671V52.9435H61.2081Z" fill="white"/>
<path d="M78.2693 52.9435H79.4558L81.4196 58.3033L83.4244 52.9435H84.5701V59.4489H83.7518V54.0891L81.7471 59.4489H81.0515L79.0467 54.0891V59.4489H78.2284V52.9435H78.2693Z" fill="white"/>
<path d="M95.3308 52.9435H96.5173L98.4813 58.3033L100.486 52.9435H101.632V59.4489H100.813V54.0891L98.8495 59.4489H98.1539L96.1491 54.0891V59.4489H95.3308V52.9435Z" fill="white"/>
<path d="M112.392 52.9435H113.579L115.543 58.3033L117.548 52.9435H118.693V59.4489H117.875V54.0891L115.87 59.4489H115.174L113.17 54.0891V59.4489H112.351V52.9435H112.392Z" fill="white"/>
<path d="M129.494 52.9435H130.681L132.645 58.3033L134.649 52.9435H135.795V59.4489H134.977V54.0891L132.972 59.4489H132.276L130.271 54.0891V59.4489H129.453V52.9435H129.494Z" fill="white"/>
<path d="M146.555 52.9435H147.742L149.706 58.3033L151.71 52.9435H152.856V59.4489H152.038V54.0891L150.033 59.4489H149.337L147.333 54.0891V59.4489H146.514V52.9435H146.555Z" fill="white"/>
<path d="M163.617 52.9435H164.804L166.768 58.3033L168.772 52.9435H169.918V59.4489H169.1V54.0891L167.095 59.4489H166.399L164.395 54.0891V59.4489H163.576V52.9435H163.617Z" fill="white"/>
<path d="M180.679 52.9435H181.865L183.829 58.3033L185.834 52.9435H186.979V59.4489H186.161V54.0891L184.156 59.4489H183.461L181.456 54.0891V59.4489H180.638V52.9435H180.679Z" fill="white"/>
<path d="M197.74 52.9435H198.926L200.89 58.3033L202.895 52.9435H204.04V59.4489H203.222V54.0891L201.217 59.4489H200.522L198.517 54.0891V59.4489H197.699V52.9435H197.74Z" fill="white"/>
<path d="M37.1913 63.4993H38.3779L40.3418 68.8591L42.3465 63.4993H43.4923V70.0047H42.674V64.6449L40.669 70.0047H39.9736L37.9688 64.6449V70.0047H37.1505V63.4993H37.1913Z" fill="white"/>
<path d="M52.4117 63.4993H53.5982L55.5622 68.8591L57.5669 63.4993H58.7125V70.0047H57.8942V64.6449L55.8894 70.0047H55.1938L53.189 64.6449V70.0047H52.3707V63.4993H52.4117Z" fill="white"/>
<path d="M67.6317 63.4993H68.8181L70.7819 68.8591L72.7867 63.4993H73.9324V70.0047H73.1141V64.6449L71.1094 70.0047H70.4138L68.409 64.6449V70.0047H67.5907V63.4993H67.6317Z" fill="white"/>
<path d="M82.8519 63.4993H84.0383L86.0024 68.8591L88.0071 63.4993H89.1527V70.0047H88.3344V64.6449L86.3296 70.0047H85.6342L83.6292 64.6449V70.0047H82.8109V63.4993H82.8519Z" fill="white"/>
<path d="M98.1127 63.4993H99.2992L101.263 68.8591L103.268 63.4993H104.414V70.0047H103.595V64.6449L101.59 70.0047H100.895L98.8901 64.6449V70.0047H98.0718V63.4993H98.1127Z" fill="white"/>
<path d="M113.333 63.4993H114.519L116.483 68.8591L118.488 63.4993H119.633V70.0047H118.815V64.6449L116.81 70.0047H116.115L114.11 64.6449V70.0047H113.292V63.4993H113.333Z" fill="white"/>
<path d="M128.554 63.4993H129.74L131.704 68.8591L133.709 63.4993H134.855V70.0047H134.036V64.6449L132.032 70.0047H131.336L129.331 64.6449V70.0047H128.513V63.4993H128.554Z" fill="white"/>
<path d="M143.773 63.4993H144.96L146.923 68.8591L148.928 63.4993H150.074V70.0047H149.256V64.6449L147.251 70.0047H146.555L144.55 64.6449V70.0047H143.732V63.4993H143.773Z" fill="white"/>
<path d="M158.994 63.4993H160.181L162.145 68.8591L164.149 63.4993H165.295V70.0047H164.477V64.6449L162.472 70.0047H161.776L159.771 64.6449V70.0047H158.953V63.4993H158.994Z" fill="white"/>
<path d="M174.255 63.4993H175.441L177.405 68.8591L179.41 63.4993H180.556V70.0047H179.737V64.6449L177.732 70.0047H177.037L175.032 64.6449V70.0047H174.214V63.4993H174.255Z" fill="white"/>
<path d="M189.475 63.4993H190.661L192.625 68.8591L194.63 63.4993H195.776V70.0047H194.957V64.6449L192.953 70.0047H192.257L190.252 64.6449V70.0047H189.434V63.4993H189.475Z" fill="white"/>
<path d="M204.695 63.4993H205.881L207.845 68.8591L209.85 63.4993H210.996V70.0047H210.178V64.6449L208.173 70.0047H207.477L205.472 64.6449V70.0047H204.654V63.4993H204.695Z" fill="white"/>
<path d="M30.1954 74.0958H31.3819L33.3457 79.4556L35.3504 74.0958H36.4962V80.6012H35.6779V75.2414L33.6731 80.6012H32.9775L30.9727 75.2414V80.6012H30.1544V74.0958H30.1954Z" fill="white"/>
<path d="M44.1468 74.0958H45.3335L47.2973 79.4556L49.3021 74.0958H50.4478V80.6012H49.6295V75.2414L47.6246 80.6012H46.9291L44.9244 75.2414V80.6012H44.1061V74.0958H44.1468Z" fill="white"/>
<path d="M58.0987 74.0958H59.2852L61.2492 79.4556L63.254 74.0958H64.3995V80.6012H63.5812V75.2414L61.5764 80.6012H60.881L58.876 75.2414V80.6012H58.0577V74.0958H58.0987Z" fill="white"/>
<path d="M72.0502 74.0958H73.2367L75.2007 79.4556L77.2055 74.0958H78.351V80.6012H77.5327V75.2414L75.528 80.6012H74.8323L72.8276 75.2414V80.6012H72.0093V74.0958H72.0502Z" fill="white"/>
<path d="M86.0435 74.0958H87.23L89.1938 79.4556L91.1986 74.0958H92.3443V80.6012H91.526V75.2414L89.5212 80.6012H88.8256L86.8209 75.2414V80.6012H86.0026V74.0958H86.0435Z" fill="white"/>
<path d="M99.995 74.0958H101.182L103.145 79.4556L105.15 74.0958H106.296V80.6012H105.478V75.2414L103.473 80.6012H102.777L100.773 75.2414V80.6012H99.9542V74.0958H99.995Z" fill="white"/>
<path d="M113.947 74.0958H115.133L117.097 79.4556L119.102 74.0958H120.248V80.6012H119.429V75.2414L117.425 80.6012H116.729L114.724 75.2414V80.6012H113.906V74.0958H113.947Z" fill="white"/>
<path d="M127.94 74.0958H129.126L131.09 79.4556L133.095 74.0958H134.241V80.6012H133.422V75.2414L131.417 80.6012H130.722L128.717 75.2414V80.6012H127.899V74.0958H127.94Z" fill="white"/>
<path d="M141.891 74.0958H143.078L145.042 79.4556L147.046 74.0958H148.192V80.6012H147.374V75.2414L145.369 80.6012H144.674L142.669 75.2414V80.6012H141.85V74.0958H141.891Z" fill="white"/>
<path d="M155.843 74.0958H157.03L158.993 79.4556L160.998 74.0958H162.144V80.6012H161.326V75.2414L159.321 80.6012H158.625L156.62 75.2414V80.6012H155.802V74.0958H155.843Z" fill="white"/>
<path d="M169.795 74.0958H170.981L172.945 79.4556L174.95 74.0958H176.096V80.6012H175.277V75.2414L173.272 80.6012H172.577L170.572 75.2414V80.6012H169.754V74.0958H169.795Z" fill="white"/>
<path d="M183.788 74.0958H184.974L186.938 79.4556L188.943 74.0958H190.089V80.6012H189.27V75.2414L187.266 80.6012H186.57L184.565 75.2414V80.6012H183.747V74.0958H183.788Z" fill="white"/>
<path d="M197.74 74.0958H198.926L200.89 79.4556L202.895 74.0958H204.04V80.6012H203.222V75.2414L201.217 80.6012H200.522L198.517 75.2414V80.6012H197.699V74.0958H197.74Z" fill="white"/>
<path d="M211.691 74.0958H212.878L214.842 79.4556L216.846 74.0958H217.992V80.6012H217.174V75.2414L215.169 80.6012H214.473L212.469 75.2414V80.6012H211.65V74.0958H211.691Z" fill="white"/>
<path d="M24.0576 83.1793H25.244L27.2078 88.5391L29.2126 83.1793H30.3583V89.6847H29.5401V84.3249L27.5353 89.6847H26.8397L24.8349 84.3249V89.6847H24.0166V83.1793H24.0576Z" fill="white"/>
<path d="M36.9454 83.1793H38.1319L40.0957 88.5391L42.1004 83.1793H43.2462V89.6847H42.4279V84.3249L40.4231 89.6847H39.7275L37.7227 84.3249V89.6847H36.9044V83.1793H36.9454Z" fill="white"/>
<path d="M49.8746 83.1793H51.0613L53.0251 88.5391L55.0299 83.1793H56.1756V89.6847H55.3573V84.3249L53.3523 89.6847H52.6569L50.6522 84.3249V89.6847H49.8339V83.1793H49.8746Z" fill="white"/>
<path d="M62.804 83.1793H63.9905L65.9545 88.5391L67.9593 83.1793H69.1048V89.6847H68.2865V84.3249L66.2817 89.6847H65.5863L63.5814 84.3249V89.6847H62.7631V83.1793H62.804Z" fill="white"/>
<path d="M75.7322 83.1793H76.9187L78.8827 88.5391L80.8875 83.1793H82.033V89.6847H81.2147V84.3249L79.21 89.6847H78.5143L76.5096 84.3249V89.6847H75.6913V83.1793H75.7322Z" fill="white"/>
<path d="M88.621 83.1793H89.8075L91.7715 88.5391L93.7763 83.1793H94.9218V89.6847H94.1035V84.3249L92.0988 89.6847H91.4031L89.3984 84.3249V89.6847H88.5801V83.1793H88.621Z" fill="white"/>
<path d="M101.549 83.1793H102.736L104.7 88.5391L106.705 83.1793H107.85V89.6847H107.032V84.3249L105.027 89.6847H104.332L102.327 84.3249V89.6847H101.509V83.1793H101.549Z" fill="white"/>
<path d="M114.479 83.1793H115.665L117.629 88.5391L119.634 83.1793H120.779V89.6847H119.961V84.3249L117.956 89.6847H117.261L115.256 84.3249V89.6847H114.438V83.1793H114.479Z" fill="white"/>
<path d="M127.408 83.1793H128.594L130.558 88.5391L132.563 83.1793H133.709V89.6847H132.89V84.3249L130.885 89.6847H130.19L128.185 84.3249V89.6847H127.367V83.1793H127.408Z" fill="white"/>
<path d="M140.336 83.1793H141.523L143.487 88.5391L145.492 83.1793H146.637V89.6847H145.819V84.3249L143.814 89.6847H143.119L141.114 84.3249V89.6847H140.295V83.1793H140.336Z" fill="white"/>
<path d="M153.225 83.1793H154.411L156.375 88.5391L158.38 83.1793H159.526V89.6847H158.707V84.3249L156.703 89.6847H156.007L154.002 84.3249V89.6847H153.184V83.1793H153.225Z" fill="white"/>
<path d="M166.153 83.1793H167.34L169.304 88.5391L171.309 83.1793H172.454V89.6847H171.636V84.3249L169.631 89.6847H168.935L166.931 84.3249V89.6847H166.112V83.1793H166.153Z" fill="white"/>
<path d="M179.083 83.1793H180.269L182.233 88.5391L184.238 83.1793H185.383V89.6847H184.565V84.3249L182.56 89.6847H181.865L179.86 84.3249V89.6847H179.042V83.1793H179.083Z" fill="white"/>
<path d="M192.012 83.1793H193.199L195.162 88.5391L197.167 83.1793H198.313V89.6847H197.495V84.3249L195.49 89.6847H194.794L192.789 84.3249V89.6847H191.971V83.1793H192.012Z" fill="white"/>
<path d="M204.9 83.1793H206.086L208.05 88.5391L210.055 83.1793H211.2V89.6847H210.382V84.3249L208.377 89.6847H207.682L205.677 84.3249V89.6847H204.859V83.1793H204.9Z" fill="white"/>
<path d="M217.829 83.1793H219.016L220.979 88.5391L222.984 83.1793H224.13V89.6847H223.312V84.3249L221.307 89.6847H220.611L218.606 84.3249V89.6847H217.788V83.1793H217.829Z" fill="white"/>
<path d="M17.7566 92.2214H18.9433L20.9071 97.5812L22.9118 92.2214H24.0576V98.7268H23.2393V93.408L21.2343 98.7677H20.5389L18.5341 93.408V98.7677H17.7158V92.2214H17.7566Z" fill="white"/>
<path d="M29.9086 92.2214H31.0951L33.0591 97.5812L35.0639 92.2214H36.2094V98.7268H35.3911V93.408L33.3864 98.7677H32.6907L30.686 93.408V98.7677H29.8677V92.2214H29.9086Z" fill="white"/>
<path d="M42.0195 92.2214H43.2059L45.1698 97.5812L47.1747 92.2214H48.3203V98.7268H47.502V93.408L45.4972 98.7677H44.8016L42.7968 93.408V98.7677H41.9785V92.2214H42.0195Z" fill="white"/>
<path d="M54.1704 92.2214H55.3571L57.3209 97.5812L59.3257 92.2214H60.4714V98.7268H59.6531V93.408L57.6481 98.7677H56.9527L54.9479 93.408V98.7677H54.1296V92.2214H54.1704Z" fill="white"/>
<path d="M66.3227 92.2214H67.5092L69.4732 97.5812L71.478 92.2214H72.6235V98.7268H71.8052V93.408L69.8004 98.7677H69.1048L67.1 93.408V98.7677H66.2817V92.2214H66.3227Z" fill="white"/>
<path d="M78.4333 92.2214H79.6198L81.5836 97.5812L83.5885 92.2214H84.7341V98.7268H83.9158V93.408L81.911 98.7677H81.2154L79.2106 93.408V98.7677H78.3923V92.2214H78.4333Z" fill="white"/>
<path d="M90.5845 92.2214H91.7711L93.7349 97.5812L95.7397 92.2214H96.8854V98.7268H96.0672V93.408L94.0622 98.7677H93.3668L91.362 93.408V98.7677H90.5437V92.2214H90.5845Z" fill="white"/>
<path d="M102.736 92.2214H103.922L105.886 97.5812L107.891 92.2214H109.037V98.7268H108.218V93.408L106.214 98.7677H105.518L103.513 93.408V98.7677H102.695V92.2214H102.736Z" fill="white"/>
<path d="M114.888 92.2214H116.074L118.038 97.5812L120.043 92.2214H121.189V98.7268H120.37V93.408L118.366 98.7677H117.67L115.665 93.408V98.7677H114.847V92.2214H114.888Z" fill="white"/>
<path d="M126.998 92.2214H128.185L130.149 97.5812L132.154 92.2214H133.299V98.7268H132.481V93.408L130.476 98.7677H129.781L127.776 93.408V98.7677H126.958V92.2214H126.998Z" fill="white"/>
<path d="M139.15 92.2214H140.336L142.3 97.5812L144.305 92.2214H145.451V98.7268H144.632V93.408L142.628 98.7677H141.932L139.927 93.408V98.7677H139.109V92.2214H139.15Z" fill="white"/>
<path d="M151.302 92.2214H152.488L154.452 97.5812L156.457 92.2214H157.603V98.7268H156.784V93.408L154.78 98.7677H154.084L152.079 93.408V98.7677H151.261V92.2214H151.302Z" fill="white"/>
<path d="M163.412 92.2214H164.599L166.563 97.5812L168.568 92.2214H169.713V98.7268H168.895V93.408L166.89 98.7677H166.195L164.19 93.408V98.7677H163.372V92.2214H163.412Z" fill="white"/>
<path d="M175.564 92.2214H176.75L178.714 97.5812L180.719 92.2214H181.865V98.7268H181.046V93.408L179.042 98.7677H178.346L176.341 93.408V98.7677H175.523V92.2214H175.564Z" fill="white"/>
<path d="M187.716 92.2214H188.902L190.866 97.5812L192.871 92.2214H194.017V98.7268H193.198V93.408L191.194 98.7677H190.498L188.493 93.408V98.7677H187.675V92.2214H187.716Z" fill="white"/>
<path d="M199.867 92.2214H201.054L203.018 97.5812L205.022 92.2214H206.168V98.7268H205.35V93.408L203.345 98.7677H202.649L200.644 93.408V98.7677H199.826V92.2214H199.867Z" fill="white"/>
<path d="M211.978 92.2214H213.164L215.128 97.5812L217.133 92.2214H218.279V98.7268H217.46V93.408L215.456 98.7677H214.76L212.755 93.408V98.7677H211.937V92.2214H211.978Z" fill="white"/>
<path d="M224.129 92.2214H225.316L227.279 97.5812L229.284 92.2214H230.43V98.7268H229.612V93.408L227.607 98.7677H226.911L224.906 93.408V98.7677H224.088V92.2214H224.129Z" fill="white"/>
<path d="M12.0695 100.159H13.256L15.22 105.518L17.2248 100.159H18.3703V106.664H17.552V101.304L15.5472 106.664H14.8518L12.8469 101.304V106.664H12.0286V100.159H12.0695Z" fill="white"/>
<path d="M23.5257 100.159H24.7122L26.6762 105.518L28.681 100.159H29.8265V106.664H29.0082V101.304L27.0034 106.664H26.308L24.303 101.304V106.664H23.4847V100.159H23.5257Z" fill="white"/>
<path d="M34.9818 100.159H36.1682L38.1322 105.518L40.137 100.159H41.2825V106.664H40.4642V101.304L38.4595 106.664H37.7641L35.7591 101.304V106.664H34.9408V100.159H34.9818Z" fill="white"/>
<path d="M46.438 100.159H47.6245L49.5885 105.518L51.5933 100.159H52.7388V106.664H51.9205V101.304L49.9158 106.664H49.2204L47.2154 101.304V106.664H46.3971V100.159H46.438Z" fill="white"/>
<path d="M57.9348 100.159H59.1212L61.0852 105.518L63.09 100.159H64.2355V106.664H63.4172V101.304L61.4125 106.664H60.7169L58.7121 101.304V106.664H57.8938V100.159H57.9348Z" fill="white"/>
<path d="M69.3908 100.159H70.5773L72.5413 105.518L74.5461 100.159H75.6916V106.664H74.8733V101.304L72.8685 106.664H72.1729L70.1681 101.304V106.664H69.3499V100.159H69.3908Z" fill="white"/>
<path d="M80.8469 100.159H82.0333L83.9974 105.518L86.0021 100.159H87.1476V106.664H86.3294V101.304L84.3246 106.664H83.629L81.6242 101.304V106.664H80.8059V100.159H80.8469Z" fill="white"/>
<path d="M92.3029 100.159H93.4894L95.4534 105.518L97.4582 100.159H98.6037V106.664H97.7854V101.304L95.7806 106.664H95.085L93.0803 101.304V106.664H92.262V100.159H92.3029Z" fill="white"/>
<path d="M103.759 100.159H104.946L106.91 105.518L108.914 100.159H110.06V106.664H109.242V101.304L107.237 106.664H106.541L104.536 101.304V106.664H103.718V100.159H103.759Z" fill="white"/>
<path d="M115.215 100.159H116.402L118.366 105.518L120.37 100.159H121.516V106.664H120.698V101.304L118.693 106.664H117.997L115.992 101.304V106.664H115.174V100.159H115.215Z" fill="white"/>
<path d="M126.671 100.159H127.858L129.822 105.518L131.827 100.159H132.972V106.664H132.154V101.304L130.149 106.664H129.454L127.449 101.304V106.664H126.63V100.159H126.671Z" fill="white"/>
<path d="M138.128 100.159H139.314L141.278 105.518L143.283 100.159H144.428V106.664H143.61V101.304L141.605 106.664H140.91L138.905 101.304V106.664H138.087V100.159H138.128Z" fill="white"/>
<path d="M149.584 100.159H150.77L152.734 105.518L154.739 100.159H155.884V106.664H155.066V101.304L153.061 106.664H152.366L150.361 101.304V106.664H149.543V100.159H149.584Z" fill="white"/>
<path d="M161.039 100.159H162.225L164.189 105.518L166.194 100.159H167.34V106.664H166.521V101.304L164.517 106.664H163.821L161.816 101.304V106.664H160.998V100.159H161.039Z" fill="white"/>
<path d="M172.495 100.159H173.682L175.646 105.518L177.65 100.159H178.796V106.664H177.978V101.304L175.973 106.664H175.277L173.272 101.304V106.664H172.454V100.159H172.495Z" fill="white"/>
<path d="M183.952 100.159H185.138L187.102 105.518L189.107 100.159H190.253V106.664H189.434V101.304L187.43 106.664H186.734L184.729 101.304V106.664H183.911V100.159H183.952Z" fill="white"/>
<path d="M195.407 100.159H196.594L198.558 105.518L200.562 100.159H201.708V106.664H200.89V101.304L198.885 106.664H198.189L196.184 101.304V106.664H195.366V100.159H195.407Z" fill="white"/>
<path d="M206.863 100.159H208.05L210.014 105.518L212.019 100.159H213.164V106.664H212.346V101.304L210.341 106.664H209.645L207.641 101.304V106.664H206.822V100.159H206.863Z" fill="white"/>
<path d="M218.361 100.159H219.547L221.511 105.518L223.516 100.159H224.662V106.664H223.843V101.304L221.839 106.664H221.143L219.138 101.304V106.664H218.32V100.159H218.361Z" fill="white"/>
<path d="M229.816 100.159H231.003L232.966 105.518L234.971 100.159H236.117V106.664H235.299V101.304L233.294 106.664H232.598L230.593 101.304V106.664H229.775V100.159H229.816Z" fill="white"/>
<path d="M6.21942 108.096H7.4059L9.36971 113.456L11.3747 108.096H12.5202V114.602H11.7019V109.242L9.69715 114.602H9.00152L6.99676 109.242V114.602H6.17847V108.096H6.21942Z" fill="white"/>
<path d="M18.2886 108.096H19.4751L21.4389 113.456L23.4439 108.096H24.5894V114.602H23.7711V109.242L21.7664 114.602H21.0707L19.066 109.242V114.602H18.2477V108.096H18.2886Z" fill="white"/>
<path d="M30.3586 108.096H31.5451L33.5089 113.456L35.5138 108.096H36.6594V114.602H35.8411V109.242L33.8363 114.602H33.1407L31.1359 109.242V114.602H30.3176V108.096H30.3586Z" fill="white"/>
<path d="M42.4286 108.096H43.6151L45.5789 113.456L47.5839 108.096H48.7294V114.602H47.9111V109.242L45.9064 114.602H45.2108L43.206 109.242V114.602H42.3877V108.096H42.4286Z" fill="white"/>
<path d="M54.498 108.096H55.6845L57.6483 113.456L59.6532 108.096H60.7988V114.602H59.9805V109.242L57.9757 114.602H57.2801L55.2753 109.242V114.602H54.457V108.096H54.498Z" fill="white"/>
<path d="M66.6085 108.096H67.7949L69.7588 113.456L71.7635 108.096H72.9092V114.602H72.091V109.242L70.0862 114.602H69.3906L67.3858 109.242V114.602H66.5675V108.096H66.6085Z" fill="white"/>
<path d="M78.6786 108.096H79.8651L81.8289 113.456L83.8337 108.096H84.9794V114.602H84.1611V109.242L82.1564 114.602H81.4608L79.456 109.242V114.602H78.6377V108.096H78.6786Z" fill="white"/>
<path d="M90.7486 108.096H91.9351L93.8989 113.456L95.9037 108.096H97.0494V114.602H96.2311V109.242L94.2263 114.602H93.5307L91.5259 109.242V114.602H90.7076V108.096H90.7486Z" fill="white"/>
<path d="M102.818 108.096H104.004L105.968 113.456L107.973 108.096H109.119V114.602H108.3V109.242L106.296 114.602H105.6L103.595 109.242V114.602H102.777V108.096H102.818Z" fill="white"/>
<path d="M114.888 108.096H116.074L118.038 113.456L120.043 108.096H121.189V114.602H120.37V109.242L118.366 114.602H117.67L115.665 109.242V114.602H114.847V108.096H114.888Z" fill="white"/>
<path d="M126.998 108.096H128.185L130.149 113.456L132.154 108.096H133.299V114.602H132.481V109.242L130.476 114.602H129.781L127.776 109.242V114.602H126.958V108.096H126.998Z" fill="white"/>
<path d="M139.069 108.096H140.255L142.219 113.456L144.224 108.096H145.37V114.602H144.551V109.242L142.546 114.602H141.851L139.846 109.242V114.602H139.028V108.096H139.069Z" fill="white"/>
<path d="M151.138 108.096H152.324L154.288 113.456L156.293 108.096H157.439V114.602H156.62V109.242L154.615 114.602H153.92L151.915 109.242V114.602H151.097V108.096H151.138Z" fill="white"/>
<path d="M163.208 108.096H164.394L166.358 113.456L168.363 108.096H169.509V114.602H168.69V109.242L166.685 114.602H165.99L163.985 109.242V114.602H163.167V108.096H163.208Z" fill="white"/>
<path d="M175.278 108.096H176.464L178.428 113.456L180.433 108.096H181.579V114.602H180.761V109.242L178.756 114.602H178.06L176.055 109.242V114.602H175.237V108.096H175.278Z" fill="white"/>
<path d="M187.347 108.096H188.534L190.498 113.456L192.502 108.096H193.648V114.602H192.83V109.242L190.825 114.602H190.129L188.125 109.242V114.602H187.306V108.096H187.347Z" fill="white"/>
<path d="M199.458 108.096H200.644L202.608 113.456L204.613 108.096H205.759V114.602H204.94V109.242L202.936 114.602H202.24L200.235 109.242V114.602H199.417V108.096H199.458Z" fill="white"/>
<path d="M211.528 108.096H212.714L214.679 113.456L216.683 108.096H217.829V114.602H217.011V109.242L215.006 114.602H214.31L212.305 109.242V114.602H211.487V108.096H211.528Z" fill="white"/>
<path d="M223.597 108.096H224.784L226.748 113.456L228.752 108.096H229.898V114.602H229.08V109.242L227.075 114.602H226.38L224.375 109.242V114.602H223.556V108.096H223.597Z" fill="white"/>
<path d="M235.667 108.096H236.854L238.818 113.456L240.822 108.096H241.968V114.602H241.15V109.242L239.145 114.602H238.449L236.445 109.242V114.602H235.626V108.096H235.667Z" fill="white"/>
<path d="M0.0409544 116.033H1.22743L3.19145 121.393L5.19621 116.033H6.34174V122.539H5.52345V117.179L3.51868 122.539H2.82306L0.818289 117.179V122.539H0V116.033H0.0409544Z" fill="white"/>
<path d="M9.3288 116.033H10.5153L12.4791 121.393L14.4839 116.033H15.6296V122.539H14.8113V117.179L12.8065 122.539H12.1109L10.1061 117.179V122.539H9.28784V116.033H9.3288Z" fill="white"/>
<path d="M18.6573 116.033H19.8438L21.8078 121.393L23.8125 116.033H24.9581V122.539H24.1398V117.179L22.135 122.539H21.4394L19.4346 117.179V122.539H18.6163V116.033H18.6573Z" fill="white"/>
<path d="M27.9443 116.033H29.1308L31.0946 121.393L33.0993 116.033H34.2451V122.539H33.4268V117.179L31.422 122.539H30.7264L28.7216 117.179V122.539H27.9033V116.033H27.9443Z" fill="white"/>
<path d="M37.2321 116.033H38.4186L40.3826 121.393L42.3874 116.033H43.5329V122.539H42.7146V117.179L40.7098 122.539H40.0144L38.0095 117.179V122.539H37.1912V116.033H37.2321Z" fill="white"/>
<path d="M46.5606 116.033H47.7471L49.7109 121.393L51.7157 116.033H52.8614V122.539H52.0431V117.179L50.0383 122.539H49.3427L47.3379 117.179V122.539H46.5197V116.033H46.5606Z" fill="white"/>
<path d="M55.8484 116.033H57.0349L58.9989 121.393L61.0037 116.033H62.1492V122.539H61.3309V117.179L59.3262 122.539H58.6308L56.6258 117.179V122.539H55.8075V116.033H55.8484Z" fill="white"/>
<path d="M65.1363 116.033H66.3228L68.2866 121.393L70.2916 116.033H71.4371V122.539H70.6188V117.179L68.614 122.539H67.9184L65.9136 117.179V122.539H65.0953V116.033H65.1363Z" fill="white"/>
<path d="M74.4231 116.033H75.6098L77.5736 121.393L79.5783 116.033H80.7241V122.539H79.9058V117.179L77.9008 122.539H77.2054L75.2006 117.179V122.539H74.3823V116.033H74.4231Z" fill="white"/>
<path d="M83.7518 116.033H84.9382L86.9021 121.393L88.907 116.033H90.0526V122.539H89.2343V117.179L87.2295 122.539H86.5339L84.5291 117.179V122.539H83.7108V116.033H83.7518Z" fill="white"/>
<path d="M93.0394 116.033H94.2261L96.1899 121.393L98.1947 116.033H99.3404V122.539H98.5221V117.179L96.5171 122.539H95.8217L93.8169 117.179V122.539H92.9987V116.033H93.0394Z" fill="white"/>
<path d="M102.327 116.033H103.514L105.478 121.393L107.483 116.033H108.628V122.539H107.81V117.179L105.805 122.539H105.11L103.105 117.179V122.539H102.286V116.033H102.327Z" fill="white"/>
<path d="M111.656 116.033H112.842L114.806 121.393L116.811 116.033H117.957V122.539H117.138V117.179L115.133 122.539H114.438L112.433 117.179V122.539H111.615V116.033H111.656Z" fill="white"/>
<path d="M120.943 116.033H122.129L124.093 121.393L126.098 116.033H127.244V122.539H126.425V117.179L124.421 122.539H123.725L121.72 117.179V122.539H120.902V116.033H120.943Z" fill="white"/>
<path d="M130.231 116.033H131.417L133.381 121.393L135.386 116.033H136.532V122.539H135.713V117.179L133.709 122.539H133.013L131.008 117.179V122.539H130.19V116.033H130.231Z" fill="white"/>
<path d="M139.559 116.033H140.745L142.71 121.393L144.714 116.033H145.86V122.539H145.042V117.179L143.037 122.539H142.341L140.336 117.179V122.539H139.518V116.033H139.559Z" fill="white"/>
<path d="M148.847 116.033H150.033L151.997 121.393L154.002 116.033H155.148V122.539H154.329V117.179L152.325 122.539H151.629L149.624 117.179V122.539H148.806V116.033H148.847Z" fill="white"/>
<path d="M158.134 116.033H159.321L161.285 121.393L163.289 116.033H164.435V122.539H163.617V117.179L161.612 122.539H160.916L158.911 117.179V122.539H158.093V116.033H158.134Z" fill="white"/>
<path d="M167.422 116.033H168.608L170.572 121.393L172.577 116.033H173.723V122.539H172.904V117.179L170.9 122.539H170.204L168.199 117.179V122.539H167.381V116.033H167.422Z" fill="white"/>
<path d="M176.75 116.033H177.937L179.901 121.393L181.905 116.033H183.051V122.539H182.233V117.179L180.228 122.539H179.532L177.528 117.179V122.539H176.709V116.033H176.75Z" fill="white"/>
<path d="M186.038 116.033H187.225L189.188 121.393L191.193 116.033H192.339V122.539H191.521V117.179L189.516 122.539H188.82L186.815 117.179V122.539H185.997V116.033H186.038Z" fill="white"/>
<path d="M195.326 116.033H196.512L198.476 121.393L200.481 116.033H201.627V122.539H200.808V117.179L198.803 122.539H198.108L196.103 117.179V122.539H195.285V116.033H195.326Z" fill="white"/>
<path d="M204.654 116.033H205.841L207.805 121.393L209.81 116.033H210.955V122.539H210.137V117.179L208.132 122.539H207.437L205.432 117.179V122.539H204.614V116.033H204.654Z" fill="white"/>
<path d="M213.941 116.033H215.128L217.092 121.393L219.096 116.033H220.242V122.539H219.424V117.179L217.419 122.539H216.723L214.719 117.179V122.539H213.9V116.033H213.941Z" fill="white"/>
<path d="M223.229 116.033H224.416L226.38 121.393L228.384 116.033H229.53V122.539H228.712V117.179L226.707 122.539H226.011L224.007 117.179V122.539H223.188V116.033H223.229Z" fill="white"/>
<path d="M232.517 116.033H233.704L235.667 121.393L237.672 116.033H238.818V122.539H238V117.179L235.995 122.539H235.299L233.294 117.179V122.539H232.476V116.033H232.517Z" fill="white"/>
<path d="M241.846 116.033H243.032L244.996 121.393L247.001 116.033H248.146V122.539H247.328V117.179L245.323 122.539H244.628L242.623 117.179V122.539H241.805V116.033H241.846Z" fill="white"/>
</svg>